<svg fill="#FFFFFF" height="8" width="8" preserveAspectRatio="xMinYMin slice" overflow="visible"  transform="translate(0, -4.5)" xmlns="http://www.w3.org/2000/svg">

<g id="layer1" transform="scale(0.7)">
<path d="M 34.77000045776367 19.616668701171875 C 31.476667404174805 25.583335876464844 29.829999923706055 30.60666847229004 29.829999923706055 34.686668395996094 C 29.829999923706055 37.36000061035156 30.27666664123535 38.6966667175293 31.170000076293945 38.6966667175293 C 31.989999771118164 38.6966667175293 33.17333221435547 36.89666748046875 34.720001220703125 33.296669006347656 C 34.959999084472656 32.856666564941406 35.13999938964844 32.63666915893555 35.2599983215332 32.63666915893555 C 35.380001068115234 32.63666915893555 35.439998626708984 32.746665954589844 35.439998626708984 32.96666717529297 C 35.439998626708984 33.186668395996094 35.41999816894531 33.35000228881836 35.380001068115234 33.456668853759766 C 34.38666534423828 37.39666748046875 32.880001068115234 39.366668701171875 30.860000610351562 39.366668701171875 C 29.899999618530273 39.366668701171875 29.136667251586914 38.89666748046875 28.56999969482422 37.956668853759766 C 28.003334045410156 37.01000213623047 27.719999313354492 35.89666748046875 27.719999313354492 34.616668701171875 C 27.719999313354492 33.33000183105469 27.91666603088379 31.683334350585938 28.309999465942383 29.676668167114258 C 28.703332901000977 27.670001983642578 29.24333381652832 25.61333465576172 29.93000030517578 23.506668090820312 C 30.616666793823242 21.393333435058594 31.49333381652832 19.573333740234375 32.560001373291016 18.046667098999023 C 33.619998931884766 16.526668548583984 34.71666717529297 15.766668319702148 35.849998474121094 15.766668319702148 C 36.36333465576172 15.766668319702148 36.619998931884766 15.860000610351562 36.619998931884766 16.046667098999023 C 36.619998931884766 16.233335494995117 36.003334045410156 17.4233341217041 34.77000045776367 19.616668701171875 M 16.25 35.66666793823242 C 16.010000228881836 36.00666809082031 15.463333129882812 36.176666259765625 14.609999656677246 36.176666259765625 C 13.75 36.176666259765625 13.319999694824219 35.936668395996094 13.319999694824219 35.456668853759766 C 13.286666870117188 35.456668853759766 14.579999923706055 32.836669921875 17.200000762939453 27.596668243408203 C 19.8266658782959 22.35000228881836 21.139999389648438 18.850000381469727 21.139999389648438 17.096668243408203 C 21.139999389648438 16.136667251586914 20.763334274291992 15.656667709350586 20.010000228881836 15.656667709350586 C 18.09000015258789 15.690000534057617 15.946666717529297 16.80666732788086 13.579999923706055 19.006668090820312 C 11.213333129882812 21.200000762939453 8.949999809265137 23.976669311523438 6.789999961853027 27.336668014526367 C 4.043333530426025 31.310001373291016 2.6700000762939453 35.03000259399414 2.6700000762939453 38.496665954589844 C 2.6700000762939453 39.28333282470703 2.740000009536743 39.88999938964844 2.880000114440918 40.31666946411133 C 3.0199999809265137 40.75 3.123333215713501 41 3.190000057220459 41.06666946411133 C 3.363333225250244 41.2400016784668 3.450000047683716 41.38666915893555 3.450000047683716 41.50666809082031 C 3.450000047683716 41.62666702270508 3.363333225250244 41.686668395996094 3.190000057220459 41.686668395996094 C 2.676666736602783 41.686668395996094 2.196666717529297 41.21333312988281 1.75 40.266666412353516 C 1.3033332824707031 39.32666778564453 1.0800000429153442 38.25666809082031 1.0800000429153442 37.05666732788086 C 1.0800000429153442 32.25666809082031 3.890000104904175 25.003334045410156 9.510000228881836 15.296667098999023 C 9.75 14.750001907348633 10.223333358764648 13.886667251586914 10.930000305175781 12.706668853759766 C 11.630000114440918 11.520000457763672 12.196666717529297 10.926668167114258 12.630000114440918 10.926668167114258 C 13.056666374206543 10.926668167114258 13.536666870117188 11.030000686645508 14.069999694824219 11.23666763305664 C 14.59666633605957 11.443334579467773 14.859999656677246 11.683334350585938 14.859999656677246 11.956668853759766 C 11.053333282470703 18.19666862487793 8.603333473205566 22.43000030517578 7.510000228881836 24.656667709350586 C 12.516666412353516 17.69666862487793 16.886667251586914 14.216667175292969 20.6200008392334 14.216667175292969 C 22.440000534057617 14.216667175292969 23.350000381469727 15.263334274291992 23.350000381469727 17.35666847229004 C 23.350000381469727 19.996667861938477 21.75666618347168 24.55666732788086 18.56999969482422 31.036666870117188 C 20.350000381469727 29.39000129699707 23.383333206176758 26.373334884643555 27.670000076293945 21.98666763305664 C 27.976667404174805 21.506668090820312 28.790000915527344 20.573333740234375 30.110000610351562 19.186668395996094 C 31.43000030517578 17.7933349609375 32.33000183105469 17.096668243408203 32.810001373291016 17.096668243408203 C 32.91666793823242 17.096668243408203 32.970001220703125 17.150001525878906 32.970001220703125 17.256668090820312 C 25.25666618347168 25.756668090820312 20.010000228881836 31.206668853759766 17.229999542236328 33.606666564941406 L 16.25 35.66666793823242 ZM 44.28274154663086 10.976667404174805 L 42.48274230957031 11.336668014526367 C 42.242740631103516 11.336668014526367 42.12274169921875 11.233335494995117 42.12274169921875 11.026668548583984 C 42.12274169921875 10.513334274291992 42.756072998046875 10.256668090820312 44.022743225097656 10.256668090820312 C 45.289405822753906 10.256668090820312 46.28274154663086 10.480001449584961 47.002742767333984 10.926668167114258 C 47.722740173339844 11.373334884643555 48.082740783691406 12.000001907348633 48.082740783691406 12.80666732788086 C 48.082740783691406 13.613334655761719 47.41607666015625 15.336668014526367 46.082740783691406 17.976667404174805 L 43.402740478515625 23.21666717529297 C 44.502742767333984 22.463335037231445 45.756072998046875 22.086668014526367 47.162742614746094 22.086668014526367 C 49.5294075012207 22.086668014526367 50.71274185180664 23.23666763305664 50.71274185180664 25.536666870117188 C 50.71274185180664 28.176668167114258 49.45274353027344 31.073333740234375 46.9327392578125 34.22666931152344 C 44.412742614746094 37.380001068115234 42.0194091796875 38.956668853759766 39.752742767333984 38.956668853759766 C 38.0727424621582 38.956668853759766 36.70273971557617 38.116668701171875 35.64274215698242 36.436668395996094 C 35.57607650756836 36.3033332824707 35.54273986816406 36.21666717529297 35.54273986816406 36.176666259765625 C 35.54273986816406 36.143333435058594 35.57607650756836 36.09333419799805 35.64274215698242 36.026668548583984 C 36.73607635498047 36.81333541870117 37.78274154663086 37.206668853759766 38.78274154663086 37.206668853759766 C 41.04273986816406 37.206668853759766 43.19274139404297 35.810001373291016 45.23274230957031 33.016666412353516 C 47.272743225097656 30.22333526611328 48.29273986816406 27.456668853759766 48.29273986816406 24.71666717529297 C 48.29273986816406 23.650001525878906 47.9327392578125 23.116668701171875 47.21274185180664 23.116668701171875 C 45.739410400390625 23.116668701171875 43.989410400390625 24.616668701171875 41.96274185180664 27.616668701171875 C 39.94274139404297 30.616668701171875 38.932743072509766 32.9900016784668 38.932743072509766 34.73666763305664 C 38.932743072509766 35.016666412353516 39.05274200439453 35.43000030517578 39.29273986816406 35.97666931152344 C 39.29273986816406 36.07666778564453 39.14607620239258 36.12666702270508 38.85274124145508 36.12666702270508 C 38.56607437133789 36.12666702270508 38.31940841674805 35.88666915893555 38.11273956298828 35.40666961669922 C 37.90607452392578 34.926666259765625 37.80274200439453 34.380001068115234 37.80274200439453 33.766666412353516 C 37.80274200439453 31.846668243408203 38.626075744628906 28.983333587646484 40.272743225097656 25.176668167114258 L 44.022743225097656 16.53666877746582 C 44.809410095214844 14.376667022705078 45.20274353027344 12.910001754760742 45.20274353027344 12.136667251586914 C 45.20274353027344 11.363334655761719 44.89607238769531 10.976667404174805 44.28274154663086 10.976667404174805 ZM 65.11467742919922 21.676668167114258 C 65.11467742919922 21.5433349609375 64.92467498779297 21.733333587646484 64.544677734375 22.246667861938477 C 63.24467468261719 24.060001373291016 62.541343688964844 25.39666748046875 62.43467712402344 26.256668090820312 C 62.43467712402344 27.183334350585938 62.7613410949707 27.750001907348633 63.4146728515625 27.956668853759766 C 63.6546745300293 28.023334503173828 63.77467346191406 28.073333740234375 63.77467346191406 28.10666847229004 C 63.77467346191406 28.380001068115234 63.441341400146484 28.51666831970215 62.77467346191406 28.51666831970215 C 62.101341247558594 28.51666831970215 61.52467346191406 28.250001907348633 61.044673919677734 27.71666717529297 C 60.564674377441406 27.19000244140625 60.324676513671875 26.59000015258789 60.324676513671875 25.916667938232422 C 60.324676513671875 25.25 60.41134262084961 24.676668167114258 60.58467483520508 24.196666717529297 C 58.9046745300293 25.536666870117188 57.50800704956055 26.90999984741211 56.394676208496094 28.316667556762695 C 55.281341552734375 29.71666717529297 54.518009185791016 30.933334350585938 54.10467529296875 31.96666717529297 C 53.691341400146484 32.99333572387695 53.38134002685547 33.926666259765625 53.17467498779297 34.766666412353516 C 52.974674224853516 35.606666564941406 52.8046760559082 36.2400016784668 52.664676666259766 36.66666793823242 C 52.52467346191406 37.10000228881836 52.30134201049805 37.31666946411133 51.99467468261719 37.31666946411133 C 51.68800735473633 37.31666946411133 51.34467315673828 37.22999954223633 50.96467590332031 37.05666732788086 C 50.59134292602539 36.88333511352539 50.4046745300293 36.676666259765625 50.4046745300293 36.436668395996094 C 50.4046745300293 35.856666564941406 50.96800994873047 33.790000915527344 52.09467315673828 30.23666763305664 C 53.22800827026367 26.69000244140625 53.794673919677734 24.026668548583984 53.794673919677734 22.246667861938477 C 53.794673919677734 21.65999984741211 53.5546760559082 21.343334197998047 53.074676513671875 21.296669006347656 C 52.59467315673828 21.243335723876953 52.35467529296875 21.14666748046875 52.35467529296875 21.006668090820312 C 52.35467529296875 20.700000762939453 52.61134338378906 20.546669006347656 53.12467575073242 20.546669006347656 C 55.42467498779297 20.546669006347656 56.574676513671875 21.490001678466797 56.574676513671875 23.376667022705078 C 56.574676513671875 23.923336029052734 56.00800704956055 25.946666717529297 54.87467575073242 29.44666862487793 C 56.72800827026367 26.426668167114258 58.78467559814453 24.35000228881836 61.044673919677734 23.21666717529297 C 61.59800720214844 21.983333587646484 62.4146728515625 21.366668701171875 63.49467468261719 21.366668701171875 C 64.57467651367188 21.366668701171875 65.11467742919922 21.470001220703125 65.11467742919922 21.676668167114258 ZM 75.75227355957031 37.15666961669922 L 76.27227020263672 37.05666732788086 L 76.37226867675781 37.106666564941406 C 76.37226867675781 37.413333892822266 75.9522705078125 37.56666946411133 75.11227416992188 37.56666946411133 C 74.27227020263672 37.56666946411133 73.58560180664062 37.19000244140625 73.0522689819336 36.436668395996094 C 72.52560424804688 35.68333435058594 72.26226806640625 34.663333892822266 72.26226806640625 33.37666702270508 C 72.26226806640625 32.09000015258789 72.50227355957031 30.623334884643555 72.98226928710938 28.976667404174805 C 72.98226928710938 29.08333396911621 72.51893615722656 29.786666870117188 71.59226989746094 31.086668014526367 C 68.77893829345703 35.44000244140625 66.56560516357422 37.616668701171875 64.9522705078125 37.616668701171875 C 64.27227020263672 37.616668701171875 63.6489372253418 37.30000305175781 63.082271575927734 36.66666793823242 C 62.51560592651367 36.03333282470703 62.23227310180664 35.21000289916992 62.23227310180664 34.1966667175293 C 62.23227310180664 33.19000244140625 62.83893966674805 31.650001525878906 64.0522689819336 29.57666778564453 C 65.27227020263672 27.496667861938477 66.73893737792969 25.653335571289062 68.4522705078125 24.046669006347656 C 70.16560363769531 22.433334350585938 71.6389389038086 21.626667022705078 72.87226867675781 21.626667022705078 L 73.39227294921875 21.626667022705078 C 74.658935546875 21.626667022705078 75.73893737792969 21.876667022705078 76.63227081298828 22.376667022705078 C 77.52560424804688 22.8700008392334 77.97227478027344 23.53000259399414 77.97227478027344 24.356666564941406 C 77.97227478027344 24.73000144958496 77.81560516357422 24.916667938232422 77.50227355957031 24.916667938232422 C 77.40226745605469 24.916667938232422 77.3522720336914 24.866668701171875 77.3522720336914 24.76666831970215 C 76.77227020263672 23.493335723876953 75.9322738647461 22.856666564941406 74.832275390625 22.856666564941406 C 72.91226959228516 22.856666564941406 70.69227600097656 24.46000099182129 68.17227172851562 27.666667938232422 C 65.65227508544922 30.873334884643555 64.39227294921875 33.31666946411133 64.39227294921875 34.99666976928711 C 64.39227294921875 35.650001525878906 64.56227111816406 35.97666931152344 64.90227508544922 35.97666931152344 C 66.44893646240234 35.97666931152344 69.6889419555664 32.496665954589844 74.62226867675781 25.536666870117188 C 74.69560241699219 25.470001220703125 74.8089370727539 25.436668395996094 74.96227264404297 25.436668395996094 C 75.11560821533203 25.436668395996094 75.46560668945312 25.596668243408203 76.01226806640625 25.916667938232422 C 76.56560516357422 26.243335723876953 76.84226989746094 26.526668548583984 76.84226989746094 26.76666831970215 C 76.84226989746094 26.76666831970215 76.59893798828125 27.213335037231445 76.11227416992188 28.10666847229004 C 74.98560333251953 30.506668090820312 74.42227172851562 32.616668701171875 74.42227172851562 34.436668395996094 C 74.42227172851562 36.25 74.86560821533203 37.15666961669922 75.75227355957031 37.15666961669922 ZM 92.31566619873047 22.55666732788086 C 92.31566619873047 22.416667938232422 92.23233032226562 22.5 92.06566619873047 22.80666732788086 C 91.0989990234375 24.560001373291016 90.23899841308594 26.670001983642578 89.48566436767578 29.136667251586914 C 88.73233032226562 31.603334426879883 88.35566711425781 33.21333312988281 88.35566711425781 33.96666717529297 C 88.35566711425781 36.060001373291016 88.73233032226562 37.106666564941406 89.48566436767578 37.106666564941406 C 89.72566986083984 37.106666564941406 90.0423355102539 36.943336486816406 90.4356689453125 36.616668701171875 C 90.83566284179688 36.290000915527344 90.9990005493164 36.12666702270508 90.92566680908203 36.12666702270508 C 91.03233337402344 36.12666702270508 91.08566284179688 36.263336181640625 91.08566284179688 36.53666687011719 C 91.08566284179688 37.43000030517578 90.56900024414062 37.87666702270508 89.5356674194336 37.87666702270508 C 88.50900268554688 37.87666702270508 87.72233581542969 37.423336029052734 87.17566680908203 36.516666412353516 C 86.62899780273438 35.61000061035156 86.35566711425781 34.31666946411133 86.35566711425781 32.63666915893555 C 86.35566711425781 30.956668853759766 86.79899597167969 28.73666763305664 87.6856689453125 25.976669311523438 C 88.5790023803711 23.21666717529297 89.4356689453125 21.836668014526367 90.25566864013672 21.836668014526367 L 90.51567077636719 21.836668014526367 C 91.71566772460938 21.836668014526367 92.31566619873047 22.07666778564453 92.31566619873047 22.55666732788086 M 88.3056640625 23.066667556762695 C 88.33899688720703 23.10000228881836 88.35566711425781 23.15999984741211 88.35566711425781 23.246667861938477 C 88.35566711425781 23.333335876464844 88.21900177001953 23.546669006347656 87.94566345214844 23.886669158935547 C 84.24566650390625 28.380001068115234 81.67566680908203 32.220001220703125 80.23566436767578 35.40666961669922 L 79.76566314697266 36.74666976928711 C 79.55899810791016 37.12666702270508 79.30233001708984 37.31666946411133 78.99566650390625 37.31666946411133 C 78.68900299072266 37.31666946411133 78.34566497802734 37.22999954223633 77.96566772460938 37.05666732788086 C 77.59233093261719 36.88333511352539 77.40567016601562 36.676666259765625 77.40567016601562 36.436668395996094 C 77.40567016601562 35.856666564941406 77.96900177001953 33.790000915527344 79.09566497802734 30.23666763305664 C 80.22900390625 26.69000244140625 80.79566955566406 24.026668548583984 80.79566955566406 22.246667861938477 C 80.79566955566406 21.76666831970215 80.67566680908203 21.47333526611328 80.4356689453125 21.366668701171875 C 80.19566345214844 21.26666831970215 79.9556655883789 21.22333526611328 79.71566772460938 21.23666763305664 C 79.47566986083984 21.256668090820312 79.35566711425781 21.18000030517578 79.35566711425781 21.006668090820312 C 79.35566711425781 20.700000762939453 79.61233520507812 20.546669006347656 80.12566375732422 20.546669006347656 C 82.42566680908203 20.546669006347656 83.57566833496094 21.490001678466797 83.57566833496094 23.376667022705078 C 83.57566833496094 24.096668243408203 82.75233459472656 26.89000129699707 81.10566711425781 31.756668090820312 C 82.61233520507812 29.39000129699707 84.06900024414062 27.35000228881836 85.47566986083984 25.636669158935547 C 86.88233184814453 23.923336029052734 87.82566833496094 23.066667556762695 88.3056640625 23.066667556762695 ZM 104.97195434570312 29.23666763305664 C 105.17861938476562 29.23666763305664 105.28195190429688 29.313335418701172 105.28195190429688 29.46666717529297 C 105.28195190429688 29.6200008392334 105.24528503417969 29.76666831970215 105.17195129394531 29.906667709350586 C 101.57195281982422 35.15333557128906 98.588623046875 37.776668548583984 96.22195434570312 37.776668548583984 C 93.30862426757812 37.776668548583984 91.8519515991211 36.423336029052734 91.8519515991211 33.71666717529297 C 91.8519515991211 31.623334884643555 92.88861846923828 29.08333396911621 94.96195220947266 26.096668243408203 C 97.04195404052734 23.116668701171875 99.05862426757812 21.626667022705078 101.01195526123047 21.626667022705078 C 101.83195495605469 21.626667022705078 102.55862426757812 21.893333435058594 103.19195556640625 22.426668167114258 C 103.82528686523438 22.95333480834961 104.14195251464844 23.596668243408203 104.14195251464844 24.356666564941406 C 104.14195251464844 25.656667709350586 103.338623046875 26.94000244140625 101.7319564819336 28.206668853759766 C 100.11862182617188 29.48000144958496 98.55862426757812 30.116668701171875 97.05195617675781 30.116668701171875 C 96.73861694335938 30.116668701171875 96.58195495605469 30.046669006347656 96.58195495605469 29.906667709350586 L 96.74195098876953 29.64666748046875 C 100.68195343017578 28.413333892822266 102.6519546508789 26.39000129699707 102.6519546508789 23.57666778564453 C 102.6519546508789 23.170001983642578 102.51528930664062 22.96666717529297 102.24195098876953 22.96666717529297 C 101.82862091064453 22.96666717529297 101.14195251464844 23.360000610351562 100.18195343017578 24.14666748046875 C 98.501953125 25.520000457763672 97.0452880859375 27.233333587646484 95.81195068359375 29.286666870117188 C 94.57862091064453 31.346668243408203 93.96195220947266 33.08000183105469 93.96195220947266 34.48666763305664 C 93.96195220947266 35.893333435058594 94.49528503417969 36.5966682434082 95.56195068359375 36.5966682434082 C 96.76195526123047 36.5966682434082 98.11528778076172 35.96000289916992 99.62195587158203 34.686668395996094 C 100.58195495605469 33.80000305175781 101.70528411865234 32.67000198364258 102.99195098876953 31.296669006347656 C 104.27861785888672 29.9233341217041 104.9386215209961 29.23666763305664 104.97195434570312 29.23666763305664 Z" transform="matrix(0.727042555809021, 0, 0, 0.727042555809021, 1.180109977722168, 3.709312915802002)"/>
</g>
</svg>
