<svg fill="#FFFFFF" height="8" width="8" preserveAspectRatio="xMinYMin slice" overflow="visible"  transform="translate(0, 4.5)" xmlns="http://www.w3.org/2000/svg">

<g id="layer1" transform="scale(0.55)">
<path d="M 2.7799999713897705 44.48666763305664 C 2.0933332443237305 44.48666763305664 1.75 44.143333435058594 1.75 43.456668853759766 C 1.75 41.61000061035156 3.8333332538604736 38.0966682434082 8 32.91666793823242 C 12.166666984558105 27.73666763305664 16.513334274291992 23.280000686645508 21.040000915527344 19.546667098999023 C 22.68000030517578 16.080001831054688 23.5 13.386667251586914 23.5 11.466667175292969 C 23.5 9.173336029052734 22.35333251953125 8.026668548583984 20.059999465942383 8.026668548583984 C 17.899999618530273 8.026668548583984 15.353333473205566 9.106666564941406 12.420000076293945 11.266666412353516 C 9.486666679382324 13.426668167114258 7.010000228881836 15.833333969116211 4.989999771118164 18.48666763305664 C 2.9633333683013916 21.14666748046875 1.9500000476837158 23.23000144958496 1.9500000476837158 24.73666763305664 C 1.9500000476837158 25.836668014526367 2.5866665840148926 26.386667251586914 3.859999895095825 26.386667251586914 C 5.673333168029785 26.386667251586914 7.6533331871032715 25.46000099182129 9.800000190734863 23.60666847229004 C 11.9399995803833 21.753334045410156 13.543333053588867 19.95333480834961 14.609999656677246 18.206668853759766 C 14.983333587646484 17.593334197998047 15.289999961853027 17.28666877746582 15.529999732971191 17.28666877746582 C 15.770000457763672 17.28666877746582 15.890000343322754 17.406667709350586 15.890000343322754 17.64666748046875 C 15.890000343322754 17.886667251586914 15.823333740234375 18.090002059936523 15.6899995803833 18.256668090820312 C 14.523333549499512 20.01000213623047 12.670000076293945 22.01666831970215 10.130000114440918 24.276668548583984 C 7.5966668128967285 26.53666877746582 5.2833333015441895 27.666667938232422 3.190000057220459 27.666667938232422 C 1.096666693687439 27.666667938232422 0.05000000074505806 26.89666748046875 0.05000000074505806 25.35666847229004 C 0.05000000074505806 24.01666831970215 0.7699999809265137 22.28666877746582 2.2100000381469727 20.166667938232422 C 3.6500000953674316 18.040000915527344 5.4066667556762695 15.990001678466797 7.480000019073486 14.016668319702148 C 9.553333282470703 12.0433349609375 11.886666297912598 10.346668243408203 14.479999542236328 8.926666259765625 C 17.066667556762695 7.5 19.373332977294922 6.7866668701171875 21.399999618530273 6.7866668701171875 C 24.040000915527344 6.7866668701171875 25.360000610351562 8.09000015258789 25.360000610351562 10.696666717529297 C 25.360000610351562 12.410001754760742 24.739999771118164 14.726667404174805 23.5 17.64666748046875 C 26.899999618530273 15.14000129699707 29.626667022705078 13.886667251586914 31.68000030517578 13.886667251586914 C 32.913333892822266 13.886667251586914 33.529998779296875 14.540000915527344 33.529998779296875 15.846668243408203 C 33.529998779296875 17.14666748046875 32.38333511352539 19.6733341217041 30.09000015258789 23.426668167114258 C 27.790000915527344 27.180002212524414 25.49333381652832 30.566667556762695 23.200000762939453 33.586669921875 L 19.75 38.16666793823242 C 19.75 38.233333587646484 19.766666412353516 38.266666412353516 19.799999237060547 38.266666412353516 C 21.106666564941406 37.37333297729492 23.39666748046875 35.42000198364258 26.670000076293945 32.40666961669922 C 29.94333267211914 29.386669158935547 32.959999084472656 26.780000686645508 35.720001220703125 24.586668014526367 C 38.47999954223633 22.393335342407227 40.526668548583984 21.296667098999023 41.86000061035156 21.296667098999023 C 42.6533317565918 21.296667098999023 43.04999923706055 21.690000534057617 43.04999923706055 22.476667404174805 C 43.04999923706055 23.263334274291992 42.02000045776367 25.030000686645508 39.959999084472656 27.776668548583984 C 37.90666580200195 30.51666831970215 35.849998474121094 33.32666778564453 33.790000915527344 36.206668853759766 C 31.729999542236328 39.086669921875 30.700000762939453 41.07666778564453 30.700000762939453 42.176666259765625 C 30.700000762939453 43.27000045776367 31.163333892822266 43.81666946411133 32.09000015258789 43.81666946411133 C 33.15666580200195 43.81666946411133 34.54666519165039 43.276668548583984 36.2599983215332 42.1966667175293 C 37.973331451416016 41.116668701171875 39.17333221435547 40.253334045410156 39.86000061035156 39.606666564941406 C 40.54666519165039 38.95333480834961 40.973331451416016 38.62666702270508 41.13999938964844 38.62666702270508 C 41.313331604003906 38.62666702270508 41.400001525878906 38.6966667175293 41.400001525878906 38.836669921875 C 41.400001525878906 39.24333572387695 40.82666778564453 39.943336486816406 39.68000030517578 40.936668395996094 C 38.53333282470703 41.936668395996094 37.09333419799805 42.880001068115234 35.36000061035156 43.766666412353516 C 33.62666702270508 44.65999984741211 32.143333435058594 45.106666564941406 30.90999984741211 45.106666564941406 C 29.263334274291992 45.106666564941406 28.440000534057617 44.43000030517578 28.440000534057617 43.07666778564453 C 28.440000534057617 41.72333526611328 29.013334274291992 40.06999969482422 30.15999984741211 38.116668701171875 C 31.31333351135254 36.15666961669922 32.573333740234375 34.336669921875 33.939998626708984 32.65666961669922 C 37.85333251953125 27.996667861938477 40.03333282470703 24.913333892822266 40.47999954223633 23.406667709350586 C 40.47999954223633 23.026668548583984 40.30666732788086 22.836668014526367 39.959999084472656 22.836668014526367 C 39.13999938964844 22.836668014526367 36.60333251953125 24.686668395996094 32.349998474121094 28.386669158935547 C 28.09666633605957 32.09333419799805 24.976667404174805 34.90666961669922 22.989999771118164 36.82666778564453 C 21.003334045410156 38.746665954589844 19.66666603088379 40.05000305175781 18.979999542236328 40.73666763305664 C 18.293333053588867 41.423336029052734 17.760000228881836 41.970001220703125 17.3799991607666 42.37666702270508 C 17.00666618347168 42.790000915527344 16.6299991607666 43.17000198364258 16.25 43.516666412353516 C 15.529999732971191 44.163333892822266 15.050000190734863 44.48666763305664 14.8100004196167 44.48666763305664 C 14.776666641235352 44.48666763305664 14.743332862854004 44.470001220703125 14.710000038146973 44.436668395996094 C 14.40333366394043 44.3033332824707 14.25 44.06333541870117 14.25 43.71666717529297 C 14.25 42.86333465576172 15.34666633605957 41.06333541870117 17.540000915527344 38.31666946411133 C 21.413333892822266 33.51667022705078 24.713333129882812 28.956668853759766 27.440000534057617 24.636667251586914 C 30.16666603088379 20.316667556762695 31.530000686645508 17.436668395996094 31.530000686645508 15.996667861938477 C 31.530000686645508 15.450000762939453 31.18666648864746 15.176668167114258 30.5 15.176668167114258 C 28.81999969482422 15.176668167114258 26.18000030517578 16.683334350585938 22.579999923706055 19.69666862487793 C 19.97333335876465 25.05000114440918 16.406665802001953 30.520000457763672 11.880000114440918 36.106666564941406 C 7.353333473205566 41.693336486816406 4.320000171661377 44.48666763305664 2.7799999713897705 44.48666763305664 M 3.9100000858306885 43.15666961669922 C 4.803333282470703 43.15666961669922 7.050000190734863 40.81666946411133 10.649999618530273 36.13666915893555 C 14.25 31.450000762939453 17.28333282470703 26.7933349609375 19.75 22.166667938232422 C 15.84333324432373 25.76666831970215 12.130000114440918 29.753334045410156 8.609999656677246 34.12666702270508 C 5.0966668128967285 38.5 3.3399999141693115 41.31999969482422 3.3399999141693115 42.586666107177734 C 3.3399999141693115 42.96666717529297 3.5299999713897705 43.15666961669922 3.9100000858306885 43.15666961669922 ZM 58.32579803466797 35.336669921875 L 59.50579833984375 35.336669921875 C 56.31913375854492 38.21666717529297 53.165802001953125 39.86333465576172 50.045799255371094 40.276668548583984 C 49.28580093383789 41.37000274658203 48.4024658203125 42.310001373291016 47.39580154418945 43.0966682434082 C 46.38246536254883 43.88999938964844 45.532466888427734 44.28666687011719 44.845802307128906 44.28666687011719 C 44.02579879760742 44.28666687011719 43.61579895019531 43.80666732788086 43.61579895019531 42.8466682434082 C 43.61579895019531 41.88666915893555 44.04246520996094 40.513336181640625 44.89580154418945 38.72666931152344 C 43.38913345336914 37.393333435058594 42.635799407958984 35.90333557128906 42.635799407958984 34.25666809082031 C 42.635799407958984 33.36333465576172 42.94580078125 32.643333435058594 43.565799713134766 32.0966682434082 C 44.179134368896484 31.55000114440918 45.052467346191406 31.276668548583984 46.18579864501953 31.276668548583984 C 47.31913375854492 31.276668548583984 48.225799560546875 31.446666717529297 48.905799865722656 31.786666870117188 C 52.26580047607422 26.573333740234375 56.12580108642578 21.07000160217285 60.485801696777344 15.276668548583984 L 62.69580078125 12.346668243408203 C 63.03580093383789 11.966667175292969 63.37913513183594 11.776668548583984 63.725799560546875 11.776668548583984 C 64.2391357421875 11.776668548583984 64.52912902832031 12.033334732055664 64.5958023071289 12.546667098999023 L 64.5958023071289 12.906667709350586 C 64.5958023071289 12.980001449584961 64.5091323852539 13.136667251586914 64.33580017089844 13.376667022705078 C 57.58246612548828 22.256668090820312 52.86913299560547 28.666667938232422 50.19580078125 32.606666564941406 C 51.089134216308594 33.5 51.53580093383789 34.546669006347656 51.53580093383789 35.746665954589844 C 51.53580093383789 36.9466667175293 51.24246597290039 38.130001068115234 50.655799865722656 39.296669006347656 C 52.9891357421875 39.02333450317383 55.545799255371094 37.70333480834961 58.32579803466797 35.336669921875 M 44.17580032348633 34.356666564941406 C 44.17580032348633 35.38333511352539 44.63913345336914 36.39666748046875 45.565799713134766 37.39666748046875 C 46.21913146972656 36.1966667175293 47.16246795654297 34.616668701171875 48.39580154418945 32.65666961669922 C 47.915802001953125 32.38333511352539 47.385799407958984 32.246665954589844 46.80580139160156 32.246665954589844 C 45.052467346191406 32.246665954589844 44.17580032348633 32.95000076293945 44.17580032348633 34.356666564941406 M 46.74580001831055 38.366668701171875 C 47.57246780395508 38.880001068115234 48.41246795654297 39.19000244140625 49.26580047607422 39.296669006347656 C 49.885799407958984 38.1966667175293 50.19580078125 37.18333435058594 50.19580078125 36.25666809082031 C 50.19580078125 35.336669921875 49.9557991027832 34.496665954589844 49.475799560546875 33.73666763305664 C 48.30913543701172 35.456668853759766 47.399131774902344 37 46.74580001831055 38.366668701171875 M 46.545799255371094 42.016666412353516 C 47.12580108642578 42.016666412353516 47.829132080078125 41.45333480834961 48.655799865722656 40.32666778564453 C 47.829132080078125 40.32666778564453 47.00579833984375 40.103336334228516 46.18579864501953 39.65666961669922 C 46.01246643066406 40.23666763305664 45.92580032348633 40.663333892822266 45.92580032348633 40.936668395996094 C 45.92580032348633 41.65666961669922 46.13246536254883 42.016666412353516 46.545799255371094 42.016666412353516 ZM 69.89765930175781 35.12666702270508 C 70.13766479492188 34.959999084472656 70.36099243164062 34.87666702270508 70.56765747070312 34.87666702270508 C 70.76766204833984 34.87666702270508 70.86766052246094 34.996665954589844 70.86766052246094 35.23666763305664 L 70.86766052246094 35.336669921875 C 68.30099487304688 37.38999938964844 65.76432800292969 39.31666946411133 63.257659912109375 41.116668701171875 C 60.757659912109375 42.91666793823242 58.9243278503418 43.81666946411133 57.757659912109375 43.81666946411133 C 56.89766311645508 43.81666946411133 56.4676628112793 43.356666564941406 56.4676628112793 42.436668395996094 C 56.4676628112793 41.51000213623047 56.88099670410156 40.583335876464844 57.70766067504883 39.65666961669922 C 58.52766418457031 38.730003356933594 59.34099578857422 37.923336029052734 60.14766311645508 37.23666763305664 C 60.95433044433594 36.55000305175781 61.357662200927734 36.0966682434082 61.357662200927734 35.87666702270508 C 61.357662200927734 35.650001525878906 61.2276611328125 35.393333435058594 60.9676628112793 35.106666564941406 C 60.71432876586914 34.81333541870117 60.50099563598633 34.616668701171875 60.32766342163086 34.51667022705078 C 59.74766159057617 35.0966682434082 58.4776611328125 36.15666961669922 56.517662048339844 37.6966667175293 L 56.31766128540039 36.926666259765625 C 58.4776611328125 35.21333312988281 59.7276611328125 34.06666564941406 60.06766128540039 33.48666763305664 L 60.06766128540039 33.01667022705078 C 60.06766128540039 32.163333892822266 60.154327392578125 31.583335876464844 60.32766342163086 31.276668548583984 C 60.50099563598633 30.963335037231445 60.91099548339844 30.533334732055664 61.55766296386719 29.98666763305664 C 62.210994720458984 29.44000244140625 62.65766143798828 29.166667938232422 62.89766311645508 29.166667938232422 C 63.13766098022461 29.166667938232422 63.35099411010742 29.25 63.537662506103516 29.416667938232422 C 63.730995178222656 29.59000015258789 63.82766342163086 29.763334274291992 63.82766342163086 29.936668395996094 C 63.82766342163086 30.110000610351562 63.767662048339844 30.30666732788086 63.64766311645508 30.526668548583984 C 63.52766418457031 30.746667861938477 63.40766143798828 30.936668395996094 63.287662506103516 31.096668243408203 C 63.16766357421875 31.25 63.004329681396484 31.436668395996094 62.79766082763672 31.656667709350586 C 62.59099578857422 31.88333511352539 62.460994720458984 32.03666687011719 62.40766143798828 32.116668701171875 C 62.36099624633789 32.20333480834961 62.310997009277344 32.35000228881836 62.257659912109375 32.55666732788086 C 62.20433044433594 32.763336181640625 62.09099578857422 32.936668395996094 61.91766357421875 33.07666778564453 C 61.75099563598633 33.209999084472656 61.66766357421875 33.380001068115234 61.66766357421875 33.586669921875 C 61.66766357421875 33.7933349609375 61.80432891845703 34.246665954589844 62.07766342163086 34.9466667175293 C 62.35099411010742 35.65333557128906 62.48766326904297 36.17000198364258 62.48766326904297 36.496665954589844 C 62.48766326904297 36.81666946411133 61.85432815551758 37.586669921875 60.58766174316406 38.80666732788086 C 59.314327239990234 40.026668548583984 58.67766189575195 41.013336181640625 58.67766189575195 41.766666412353516 C 58.67766189575195 42.173336029052734 58.86766052246094 42.37666702270508 59.24766159057617 42.37666702270508 C 59.7276611328125 42.37666702270508 60.61766052246094 41.95000076293945 61.91766357421875 41.0966682434082 L 62.537662506103516 40.686668395996094 C 64.76432800292969 39.13999938964844 66.857666015625 37.58000183105469 68.81765747070312 36.00666809082031 L 69.89765930175781 35.12666702270508 ZM 75.19379425048828 37.496665954589844 C 74.98712921142578 37.496665954589844 74.88379669189453 37.42000198364258 74.88379669189453 37.266666412353516 C 74.88379669189453 37.11333465576172 75.00379943847656 36.93333435058594 75.2437973022461 36.72666931152344 C 76.37712860107422 35.80000305175781 76.94379425048828 34.959999084472656 76.94379425048828 34.206668853759766 C 76.94379425048828 33.72666931152344 76.5137939453125 33.45000076293945 75.65379333496094 33.37666702270508 C 74.11380004882812 33.41666793823242 72.27046203613281 34.53333282470703 70.12379455566406 36.72666931152344 C 67.98379516601562 38.92000198364258 66.9137954711914 40.56333541870117 66.9137954711914 41.65666961669922 C 66.9137954711914 42.03666687011719 67.12712860107422 42.22666931152344 67.55379486083984 42.22666931152344 C 67.98046112060547 42.22666931152344 68.55379486083984 41.936668395996094 69.27379608154297 41.356666564941406 C 69.92713165283203 40.943336486816406 71.143798828125 39.913333892822266 72.92379760742188 38.266666412353516 C 73.33712768554688 37.85333251953125 73.73379516601562 37.64666748046875 74.11380004882812 37.64666748046875 C 74.59379577636719 37.64666748046875 74.83379364013672 37.87000274658203 74.83379364013672 38.31666946411133 C 74.83379364013672 38.4900016784668 74.78046417236328 38.62666702270508 74.67379760742188 38.72666931152344 C 74.57379913330078 38.833335876464844 74.38713073730469 39.05000305175781 74.11380004882812 39.37666702270508 C 73.84046173095703 39.6966667175293 73.6004638671875 39.996665954589844 73.393798828125 40.276668548583984 C 72.77379608154297 41.163333892822266 72.46379852294922 41.74333572387695 72.46379852294922 42.016666412353516 C 72.46379852294922 42.70333480834961 72.73712921142578 43.046669006347656 73.28379821777344 43.046669006347656 C 74.00379943847656 43.046669006347656 75.36046600341797 42.38666915893555 77.35379791259766 41.06666946411133 C 79.34046173095703 39.746665954589844 81.1571273803711 38.42000198364258 82.80379486083984 37.086669921875 L 85.27379608154297 35.12666702270508 C 85.5137939453125 34.959999084472656 85.73712921142578 34.87666702270508 85.94379425048828 34.87666702270508 C 86.15046691894531 34.87666702270508 86.25379943847656 34.996665954589844 86.25379943847656 35.23666763305664 L 86.25379943847656 35.336669921875 C 83.61380004882812 37.56333541870117 80.82713317871094 39.65333557128906 77.893798828125 41.606666564941406 C 74.96046447753906 43.560001373291016 73.03046417236328 44.53666687011719 72.10379791259766 44.53666687011719 C 71.01045989990234 44.53666687011719 70.46379852294922 43.956668853759766 70.46379852294922 42.796669006347656 C 70.46379852294922 42.516666412353516 70.5137939453125 42.25666809082031 70.61380004882812 42.016666412353516 C 70.71379852294922 41.776668548583984 70.7637939453125 41.606666564941406 70.7637939453125 41.50666809082031 C 70.7637939453125 41.40666961669922 70.73046112060547 41.336669921875 70.6637954711914 41.296669006347656 C 70.56379699707031 41.296669006347656 69.90379333496094 41.76000213623047 68.68379974365234 42.686668395996094 C 67.47046661376953 43.61333465576172 66.4071273803711 44.07666778564453 65.4937973022461 44.07666778564453 C 64.58712768554688 44.07666778564453 64.13379669189453 43.5966682434082 64.13379669189453 42.63666915893555 C 64.13379669189453 41.676666259765625 64.77713012695312 40.38333511352539 66.06379699707031 38.75666809082031 C 67.3504638671875 37.130001068115234 69.07379913330078 35.64666748046875 71.23379516601562 34.30666732788086 C 73.393798828125 32.96666717529297 75.5004653930664 32.296669006347656 77.55379486083984 32.296669006347656 C 78.03379821777344 32.296669006347656 78.4371337890625 32.41666793823242 78.7637939453125 32.65666961669922 C 79.09046173095703 32.89666748046875 79.25379943847656 33.26667022705078 79.25379943847656 33.76667022705078 C 79.25379943847656 34.26667022705078 78.75712585449219 35.013336181640625 77.7637939453125 36.00666809082031 C 76.77046203613281 37 75.9137954711914 37.496665954589844 75.19379425048828 37.496665954589844 ZM 106.1514892578125 35.28666687011719 C 98.91815185546875 41.31999969482422 94.44482421875 44.336666107177734 92.73149108886719 44.336666107177734 C 91.7381591796875 44.336666107177734 91.24148559570312 43.923336029052734 91.24148559570312 43.0966682434082 C 91.24148559570312 42.276668548583984 91.608154296875 41.30000305175781 92.34149169921875 40.16666793823242 C 93.08148956298828 39.040000915527344 93.81815338134766 38.03666687011719 94.5514907836914 37.15666961669922 C 95.29148864746094 36.28333282470703 95.66149139404297 35.763336181640625 95.66149139404297 35.5966682434082 C 95.66149139404297 35.423336029052734 95.61148834228516 35.336669921875 95.51148986816406 35.336669921875 C 92.31815338134766 37.46333312988281 90.42149353027344 38.766666412353516 89.82148742675781 39.246665954589844 C 89.22148895263672 39.72666931152344 88.24482727050781 40.513336181640625 86.89148712158203 41.606666564941406 C 85.53815460205078 42.706668853759766 84.65482330322266 43.393333435058594 84.24149322509766 43.66666793823242 C 83.82815551757812 43.94000244140625 83.3814926147461 44.07666778564453 82.9014892578125 44.07666778564453 C 82.42149353027344 44.07666778564453 82.18148803710938 43.87000274658203 82.18148803710938 43.456668853759766 C 82.18148803710938 42.97666931152344 83.14148712158203 41.470001220703125 85.06149291992188 38.936668395996094 C 86.91482543945312 36.39666748046875 87.84149169921875 34.97333526611328 87.84149169921875 34.66666793823242 C 87.84149169921875 34.60000228881836 87.781494140625 34.56666564941406 87.66149139404297 34.56666564941406 C 87.54148864746094 34.56666564941406 86.05815887451172 35.61000061035156 83.21148681640625 37.6966667175293 L 83.01148986816406 36.926666259765625 C 85.44482421875 34.97333526611328 87.0881576538086 33.72333526611328 87.94149017333984 33.176666259765625 C 88.8014907836914 32.630001068115234 89.49815368652344 32.356666564941406 90.031494140625 32.356666564941406 C 90.55815887451172 32.356666564941406 90.82148742675781 32.61333465576172 90.82148742675781 33.12666702270508 C 90.82148742675781 33.46666717529297 89.85482025146484 34.86333465576172 87.92149353027344 37.31666946411133 C 85.98149108886719 39.77000045776367 85.01148986816406 41.09000015258789 85.01148986816406 41.276668548583984 C 85.01148986816406 41.46333312988281 85.07148742675781 41.55666732788086 85.19149017333984 41.55666732788086 C 85.31149291992188 41.55666732788086 87.26815795898438 40.176666259765625 91.06149291992188 37.41666793823242 C 94.84815979003906 34.65666961669922 97.1514892578125 33.276668548583984 97.97148895263672 33.276668548583984 C 98.21148681640625 33.276668548583984 98.44482421875 33.37000274658203 98.67149353027344 33.55666732788086 C 98.89148712158203 33.75 99.0014877319336 33.93000030517578 99.0014877319336 34.0966682434082 C 99.0014877319336 34.51000213623047 98.0948257446289 35.87333297729492 96.281494140625 38.186668395996094 C 94.46148681640625 40.5 93.5514907836914 41.81333541870117 93.5514907836914 42.12666702270508 C 93.5514907836914 42.43333435058594 93.76482391357422 42.586666107177734 94.19149017333984 42.586666107177734 C 94.62482452392578 42.586666107177734 95.5448226928711 42.12333297729492 96.95149230957031 41.1966667175293 C 99.51815795898438 39.516666412353516 101.8814926147461 37.78666687011719 104.04148864746094 36.00666809082031 L 105.17149353027344 35.07666778564453 C 105.41149139404297 34.90333557128906 105.63482666015625 34.81666564941406 105.84149169921875 34.81666564941406 C 106.04815673828125 34.81666564941406 106.1514892578125 34.92000198364258 106.1514892578125 35.12666702270508 L 106.1514892578125 35.28666687011719 ZM 118.34364318847656 35.12666702270508 C 118.58364868164062 34.959999084472656 118.80697631835938 34.87666702270508 119.0136489868164 34.87666702270508 C 119.2203140258789 34.87666702270508 119.32364654541016 34.996665954589844 119.32364654541016 35.23666763305664 L 119.32364654541016 35.336669921875 C 115.7569808959961 38.28333282470703 112.79031372070312 40.49333572387695 110.42364501953125 41.96666717529297 C 108.0569839477539 43.44000244140625 105.91365051269531 44.176666259765625 103.99364471435547 44.176666259765625 C 102.44698333740234 44.176666259765625 101.67364501953125 43.423336029052734 101.67364501953125 41.91666793823242 C 101.67364501953125 39.69000244140625 102.8069839477539 37.40333557128906 105.07364654541016 35.05666732788086 C 107.33364868164062 32.70333480834961 109.23698425292969 31.526668548583984 110.78364562988281 31.526668548583984 C 111.63697814941406 31.526668548583984 112.06364440917969 32.00666809082031 112.06364440917969 32.96666717529297 C 111.89698028564453 34.85333251953125 109.19031524658203 37.38999938964844 103.94364929199219 40.57666778564453 L 103.94364929199219 41.0966682434082 C 103.94364929199219 42.22999954223633 104.53364562988281 42.796669006347656 105.7136459350586 42.796669006347656 C 106.90031433105469 42.796669006347656 108.1769790649414 42.400001525878906 109.54364776611328 41.606666564941406 C 112.21697998046875 40.03333282470703 114.7203140258789 38.233333587646484 117.05364990234375 36.206668853759766 L 118.34364318847656 35.12666702270508 M 109.44364929199219 33.12666702270508 C 108.69031524658203 33.12666702270508 107.7203140258789 33.76000213623047 106.53364562988281 35.026668548583984 C 105.35364532470703 36.2933349609375 104.5569839477539 37.733333587646484 104.14364624023438 39.3466682434082 C 105.79031372070312 38.35333251953125 107.18031311035156 37.30000305175781 108.31364440917969 36.186668395996094 C 109.44698333740234 35.073333740234375 110.0136489868164 34.28333282470703 110.0136489868164 33.81666564941406 C 110.0136489868164 33.356666564941406 109.82364654541016 33.12666702270508 109.44364929199219 33.12666702270508 Z" transform="matrix(0.727042555809021, 0, 0, 0.727042555809021, 2.180109977722168, 3.709312915802002)"/>
</g>
</svg>
