<svg viewBox="0 0 1834 300" overflow="visible" focusable="false">
  <path stroke-width="4" fill="transparent" id="curve"
    d="M0.9305783815564946,5.942490693536172C1.5271029851183502,6.087420021470379,2.1236275886802054,6.232349349404586,2.720152192242061,6.464472289988578C3.3166767958039167,6.696595230572569,3.913201399365772,6.986900326231553,4.509726002927628,7.335228337040121C5.106250606489483,7.683556347848689,5.702775210051338,8.090156306111774,6.299299813613193,8.554440354839983C6.8958244171750485,9.018724403568191,7.492349020736903,9.541228565948767,8.088873624298758,10.120932629409367C8.685398227860613,10.700636692869969,9.28192283142247,11.33836582226409,9.878447434984325,12.03266473560359C10.47497203854618,12.726963648943089,11.071496642108038,13.478948111571043,11.668021245669893,14.286726109446363C12.264545849231748,15.094504107321683,12.861070452793602,15.95948275617144,13.457595056355457,16.87933272285551C14.054119659917312,17.799182689539577,14.650644263479167,18.775602465615105,15.247168867041022,19.805825909550776C15.843693470602878,20.836049353486448,16.440218074164733,21.922065619675777,17.03674267772659,23.060673386469546C17.633267281288447,24.199281153263314,18.2297918848503,25.392758774071524,18.826316488412157,26.637472510313387C19.42284109197401,27.88218624655525,20.019365695535868,29.180701425305323,20.61589029909772,30.528955803920724C21.212414902659578,31.87721018253613,21.808939506221435,33.27805306591915,22.405464109783292,34.72699878200581C23.001988713345145,36.17594449809246,23.598513316907002,37.67612255616172,24.195037920468856,39.222630100440654C24.79156252403071,40.769137644719585,25.388087127592566,42.36537983256026,25.98461173115442,44.00604404767938C26.581136334716277,45.64670826279851,27.17766093827813,47.33546996818185,27.774185541839987,49.06661539115541C28.370710145401844,50.79776081412897,28.967234748963698,52.57522959346982,29.563759352525555,54.39291658552074C30.16028395608741,56.21060357757165,30.756808559649265,58.07270568046171,31.353333163211122,59.97273734346092C31.949857766772976,61.872769006460125,32.54638237033483,63.81517668694562,33.142906973896686,65.79310656351598C33.73943157745854,67.77103644008633,34.3359561810204,69.7891760507056,34.93248078458225,71.84031660288306C35.52900538814411,73.89145715506051,36.12552999170596,75.98051801745552,36.722054595267814,78.09994987658067C37.318579198829674,80.21938173570584,37.91510380239153,82.37432577937939,38.51162840595339,84.55690775763401C39.10815300951524,86.73948973588861,39.7046776130771,88.9550618943986,40.301202216638956,91.19544174610832C40.89772682020081,93.43582159781803,41.49425142376266,95.70656094938916,42.090776027324516,97.99918686789232C42.68730063088637,100.2918127863955,43.28382523444823,102.61206442359045,43.88034983801008,104.95119725712735C44.47687444157194,107.29033009066424,45.0733990451338,109.65425770139862,45.66992364869565,112.03398386911368C46.266448252257504,114.41371003682875,46.862972855819365,116.81530917664155,47.45949745938122,119.22955426341775C48.05602206294307,121.64379935019396,48.65254666650493,124.0769113833043,49.249071270066786,126.51945438977091C49.84559587362864,128.96199739623754,50.4421204771905,131.42032408053794,51.03864508075235,133.88481230221743C51.63516968431421,136.34930052389691,52.23169428787607,138.82641921265488,52.82821889143792,141.3063837198479C53.424743494999774,143.78634822704092,54.02126809856163,146.27572765771885,54.61779270212348,148.76459934537556C55.214317305685334,151.25347103303227,55.810841909247195,153.74848767128913,56.40736651280905,156.2396138457881C57.00389111637091,158.7307400202871,57.60041571993276,161.22469492490964,58.19694032349462,163.7113563923695C58.793464927056476,166.19801785982935,59.38998953061833,168.68415403205668,59.98651413418018,171.15958265054726C60.583038737742044,173.63501126903788,61.1795633413039,176.10653144750324,61.77608794486576,178.56392810331312C62.37261254842761,181.021324759123,62.969137151989464,183.47140961944768,63.56566175555132,185.90396258540648C64.16218635911318,188.33651555136527,64.75871096267502,190.75834226730498,65.35523556623689,193.15924589906587C65.95176016979875,195.56014953082675,66.54828477336059,197.9469106518088,67.14480937692245,200.30938437597172C67.74133398048431,202.67185810013464,68.33785858404616,205.01678069803165,68.93438318760802,207.33408824404347C69.53090779116988,209.6513957900553,70.12743239473173,211.94776082613362,70.72395699829359,214.21322965204263C71.32048160185545,216.47869847795164,71.9170062054173,218.7198603391167,72.51353080897916,220.9269011994976C73.11005541254102,223.13394205987848,73.70658001610286,225.31334821162253,74.30310461966472,227.45547481432794C74.89962922322657,229.59760141703333,75.49615382678843,231.70881211888127,76.09267843035028,233.77966081573C76.68920303391214,235.85050951257878,77.285727637474,237.88721754033517,77.88225224103586,239.88056699542048C78.47877684459772,241.87391645050576,79.07530144815956,243.82996676823913,79.67182605172142,245.7397575462418C80.26835065528327,247.64954832424445,80.86487525884513,249.51895764770623,81.46139986240698,251.33931166343646C82.05792446596884,253.15966567916672,82.6544490695307,254.93664187124946,83.25097367309256,256.6618816406232C83.8474982766544,258.38712140999695,84.44402288021627,260.0660826478883,85.04054748377811,261.6907502796789C85.63707208733997,263.3154179114695,86.23359669090182,264.89101156436664,86.83012129446368,266.40988743136677C87.42664589802554,267.9287632983669,88.02317050158739,269.3958844539895,88.61969510514925,270.80400548167955C89.21621970871111,272.2121265093696,89.81274431227295,273.56593608705253,90.40926891583482,274.85861359750714C91.00579351939668,276.15129110796175,91.60231812295852,277.387233495828,92.19884272652038,278.56007054440727C92.79536733008224,279.7329075929865,93.39189193364409,280.8467277466069,93.98841653720595,281.8956358889826C94.58494114076781,282.9445440313583,95.18146574432966,283.9323039713986,95.77799034789152,284.8535193986614C96.37451495145336,285.77473482592416,96.97103955501522,286.6328294725714,97.56756415857707,287.4229284525594C98.16408876213893,288.2130274325474,98.76061336570079,288.93819971500164,99.35713796926265,289.59411327858936C99.9536625728245,290.2500268421771,100.55018717638636,290.83938202219156,101.1467117799482,291.35840983408576C101.74323638351007,291.87743764598,102.33976098707191,292.3284567953462,102.93628559063377,292.70828014995476C103.53281019419563,293.0881035045634,104.1293347977575,293.3986560775608,104.72585940131935,293.6373499617373C105.3223840048812,293.8760438459138,105.91890860844306,294.09166245350656,106.51543321200491,294.1404434550136C107.11195781556677,294.18922445652066,107.70848241912861,294.21361495727416,108.30500702269048,294.21361495727416C108.90153162625234,294.21361495727416,109.49805622981418,294.04632532483834,110.09458083337604,293.85417741375295C110.6911054369379,293.66202950266756,111.28763004049975,293.39756253359,111.88415464406161,293.0607274907618C112.48067924762347,292.72389244793357,113.07720385118532,292.3145014720808,113.67372845474718,291.8331671567835C114.27025305830902,291.35183284148616,114.86677766187088,290.7979239016373,115.46330226543273,290.17272159897783C116.05982686899458,289.54751929631834,116.65635147255644,288.8499448680922,117.25287607611828,288.08195334082643C117.84940067968014,287.31396181356064,118.44592528324202,286.47402422252077,119.04244988680388,285.56477243538313C119.63897449036573,284.6555206482455,120.23549909392759,283.6749741384865,120.83202369748943,282.6264426180006C121.42854830105128,281.57791109751474,122.02507290461314,280.4589625162698,122.62159750817499,279.273583312468C123.21812211173685,278.0882041086662,123.8146467152987,276.8335121750387,124.41117131886055,275.51416739518993C125.00769592242241,274.19482261534114,125.60422052598427,272.8074957450502,126.20074512954614,271.3575146333752C126.79726973310798,269.9075335217003,127.39379433666984,268.3911261837081,127.99031894023169,266.81428072514035C128.58684354379355,265.2374352665726,129.1833681473554,263.59594285164764,129.77989275091724,261.8964418819689C130.37641735447912,260.1969409122901,130.97294195804096,258.43479309792764,131.56946656160284,256.6172749070677C132.16599116516468,254.79975671620784,132.76251576872656,252.92180931688637,133.3590403722884,250.99133273680954C133.95556497585025,249.06085615673274,134.5520895794121,247.0723814532067,135.14861418297394,245.0344154266068C135.7451387865358,242.9964494000069,136.34166339009766,240.9031249462255,136.9381879936595,238.7635365772101C137.5347125972214,236.62394820819466,138.13123720078323,234.4318441194719,138.7277618043451,232.1968852125143C139.32428640790695,229.9619263055568,139.9208110114688,227.67749103679506,140.51733561503065,225.3537831354648C141.1138602185925,223.03007523413447,141.71038482215437,220.6601198622036,142.3069094257162,218.2546378045325C142.9034340292781,215.84915574686136,143.49995863283993,213.4008367766438,144.0964832364018,210.92089078943803C144.69300783996366,208.44094480223234,145.2895324435255,205.9217455213544,145.88605704708735,203.37496188129808C146.4825816506492,200.8281782412417,147.07910625421107,198.24588865409555,147.67563085777292,195.64018894909987C148.27215546133476,193.03448924410418,148.86868006489664,190.3971846214094,149.46520466845848,187.74076365132402C150.06172927202033,185.08434268123864,150.6582538755822,182.400360767091,151.25477847914405,179.7016631285876C151.8513030827059,177.0029654900842,152.44782768626777,174.28088241415225,153.04435228982962,171.54857782030354C153.64087689339146,168.81627322645483,154.23740149695334,166.0648781747113,154.83392610051519,163.30783556549525C155.43045070407703,160.5507929562792,156.0269753076389,157.7790616593656,156.62349991120075,155.00632216500713C157.2200245147626,152.23358267064867,157.81654911832447,149.45064977464557,158.41307372188632,146.67139859934449C159.00959832544817,143.8921474240434,159.60612292901004,141.10727781403884,160.2026475325719,138.33081511320063C160.79917213613373,135.55435241236242,161.3956967396956,132.77691156475132,161.99222134325746,130.01262239431523C162.5887459468193,127.24833322387914,163.18527055038118,124.48775666876213,163.78179515394302,121.74508009058408C164.37831975750487,119.00240351240603,164.97484436106674,116.2681654927725,165.5713689646286,113.55656292524696C166.16789356819044,110.84496035772143,166.7644181717523,108.14654177726182,167.36094277531416,105.47546468543086C167.957467378876,102.80438759359991,168.55399198243788,100.15124334998438,169.15051658599972,97.53010037426122C169.74704118956157,94.90895739853806,170.34356579312345,92.31048320378937,170.9400903966853,89.7486068310919C171.53661500024714,87.18673045839444,172.133139603809,84.6522292525536,172.72966420737086,82.15884213807638C173.3261888109327,79.6654550235992,173.92271341449455,77.20410309220222,174.5192380180564,74.7882841442287C175.11576262161827,72.3724651962551,175.71228722518012,69.99327810619096,176.308811828742,67.66392845023506C176.90533643230384,65.33457879427921,177.50186103586572,63.04637726634744,178.09838563942756,60.81218620849347C178.6949102429894,58.57799515063954,179.29143484655125,56.38937099055913,179.8879594501131,54.25878210311134C180.48448405367498,52.12819321566349,181.08100865723682,50.04747542836594,181.6775332607987,48.02865288380656C182.27405786436054,46.00983033924721,182.87058246792242,44.045051553997084,183.46710707148426,42.14584683575515C184.0636316750461,40.24664211751325,184.66015627860796,38.405505453724125,185.2566808821698,36.63342457435505C185.85320548573165,34.86134369498594,186.44973008929352,33.15119020049327,187.04625469285537,31.513361559540613C187.64277929641725,29.875532918587933,188.2393038999791,28.303309713607415,188.83582850354097,26.806452728639044C189.4323531071028,25.30959574367072,190.02887771066466,23.88182500466961,190.6254023142265,22.532219649730507C191.22192691778835,21.18261429479138,191.81845152135023,19.905363213020404,192.41497612491207,18.708820599004355C193.01150072847395,17.512277984988287,193.6080253320358,16.391129834440132,194.20454993559767,15.35296396563416C194.80107453915952,14.314798096828223,195.39759914272136,13.35482454588977,195.9941237462832,12.479825386168613C196.59064834984505,11.604826226447445,197.18717295340693,10.810561026476833,197.78369755696878,10.102969007307195C198.38022216053065,9.395376988137544,198.9767467640925,8.770791170611107,199.57327136765437,8.234273271150755C200.16979597121622,7.6977553716904215,200.76632057477806,7.246234083413524,201.3628451783399,6.883861610545125C201.95936978190176,6.52148913767672,202.55589438546363,6.245810240826074,203.15241898902548,6.060038433940349C203.74894359258732,5.874266627054624,204.3454681961492,5.769230769230774,204.94199279971104,5.769230769230774C205.5385174032729,5.769230769230774,206.13504200683477,5.851465820923484,206.7315666103966,6.015935924308906C207.32809121395846,6.180406027694327,207.92461581752033,6.4503388052587995,208.52114042108218,6.802675508527045C209.11766502464403,7.155012211795291,209.7141896282059,7.597695865694912,210.31071423176775,8.129956143918378C210.9072388353296,8.662216422141844,211.50376343889147,9.284912253528887,212.10028804245331,9.99623717786784C212.69681264601516,10.707562102206793,213.29333724957704,11.509068708780054,213.88986185313888,12.397905689952097C214.48638645670073,13.28674267112414,215.0829110602626,14.265160783047302,215.67943566382445,15.3292590649001C216.2759602673863,16.393357346752882,216.87248487094814,17.546086585297317,217.46900947451,18.782495381068827C218.06553407807186,20.018904176840376,218.6620586816337,21.342642497568747,219.25858328519558,22.747711839529302C219.85510788875743,24.152781181489832,220.4516324923193,25.643527068616017,221.04815709588115,27.212911432832072C221.644681699443,28.782295797048107,222.24120630300484,30.43535326636615,222.8377309065667,32.164018024825566C223.43425551012857,33.89268278328504,224.0307801136904,35.70266924128185,224.6273047172523,37.58489998358874C225.22382932081413,39.46713072589559,225.820353924376,41.42798772235723,226.41687852793785,43.45740247866678C227.0134031314997,45.4868172349763,227.60992773506155,47.59182413559929,228.2064523386234,49.76138852144595C228.80297694218527,51.93095290729271,229.39950154574714,54.17274350154586,229.99602614930902,56.47478879374708C230.59255075287086,58.77683408594823,231.18907535643274,61.14741613372636,231.78559995999458,63.573660274653065C232.38212456355643,65.99990441557973,232.97864916711828,68.49068212407428,233.57517377068012,71.03225363930721C234.17169837424197,73.57382515454017,234.76822297780384,76.17562456428384,235.3647475813657,78.82308936605074C235.96127218492754,81.47055416781764,236.5577967884894,84.17365141404404,237.15432139205126,86.91704244990865C237.7508459956131,89.66043348577321,238.34737059917495,92.45458588815004,238.9438952027368,95.28343558123822C239.54041980629867,98.11228527432655,240.13694440986055,100.98676519478678,240.73346901342242,103.89014060843823C241.32999361698427,106.79351602208958,241.92651822054614,109.73714741697408,242.523042824108,112.70368806314661C243.11956742766984,115.6702287093191,243.71609203123168,118.67142628838134,244.31261663479353,121.68938448547331C244.90914123835537,124.70734268256533,245.50566584191725,127.75415357366396,246.1021904454791,130.81143724569856C246.69871504904094,133.86872091773316,247.29523965260282,136.94886872227232,247.89176425616466,140.03308651768094C248.4882888597265,143.1173043130895,249.08481346328836,146.21823542354784,249.6813380668502,149.31674401815016C250.27786267041205,152.41525261275254,250.87438727397392,155.52418465002174,251.47091187753577,158.624138085295C252.06743648109764,161.72409152056832,252.66396108465952,164.82806373536573,253.2604856882214,167.91646462978989C253.85701029178324,171.0048655242139,254.4535348953451,174.09079099361057,255.05005949890693,177.1545434518395C255.64658410246878,180.21829591006843,256.2431087060306,183.27301534725203,256.8396333095925,186.29897937916348C257.4361579131544,189.32494341107494,258.0326825167162,192.33528039392354,258.62920712027807,195.31032764330823C259.22573172383994,198.28537489269291,259.82225632740176,201.23819230462567,260.41878093096364,204.1492628754717C261.0153055345255,207.0603334463177,261.6118301380873,209.94259091130942,262.2083547416492,212.77675106838436C262.804879345211,215.6109112254592,263.4014039487729,218.40972330810988,263.9979285523347,221.1542238179211C264.5944531558966,223.89872432773248,265.19097775945846,226.601419258956,265.78750236302034,229.2437541272521C266.3840269665822,231.88608899554808,266.98055157014403,234.48026767486448,267.5770761737059,237.00823302769732C268.1736007772678,239.53619838053015,268.7701253808296,242.00979339716608,269.3666499843915,244.41154624424908C269.96317458795335,246.81329909133208,270.55969919151516,249.1546334984659,271.15622379507704,251.4187501101954C271.7527483986389,253.68286672192488,272.34927300220073,255.8807122914834,272.9457976057626,257.99624591462606C273.5423222093244,260.11177953776865,274.1388468128863,262.1554142173038,274.7353714164481,264.11195184905114C275.33189602001,266.0684894807985,275.9284206235718,267.94775376918443,276.5249452271337,269.73547170511006C277.12146983069556,271.52318964103574,277.71799443425743,273.2285415961161,278.3145190378193,274.8382594646051C278.9110436413812,276.447977333094,279.507568244943,277.9705459220272,280.1040928485049,279.3937789160437C280.70061745206675,280.81701191006016,281.29714205562857,282.1486484120248,281.89366665919044,283.3776574287041C282.4901912627523,284.6066664453834,283.08671586631414,285.7399936165756,283.683240469876,286.7678330161194C284.27976507343783,287.7956724156632,284.8762896769997,288.7241311281876,285.4728142805615,289.544693825967C286.0693388841234,290.36525652374644,286.6658634876852,291.0831495931309,287.2623880912471,291.691209202796C287.85891269480896,292.29926881246115,288.4554372983708,292.8018017331516,289.05196190193266,293.1930514839578C289.64848650549453,293.584301234764,290.2450111090564,293.91812588933925,290.8415357126183,294.03870770763314C291.43806031618016,294.159289525927,292.034584919742,294.21958043507396,292.63110952330385,294.21958043507396C293.2276341268657,294.21958043507396,293.82415873042754,294.00539267830527,294.4206833339894,293.73007691716947C295.01720793755123,293.45476115603367,295.6137325411131,293.067191829823,296.2102571446749,292.56768586825905C296.8067817482368,292.06817990669504,297.4033063517986,291.45599351034326,297.9998309553605,290.73304114778557C298.59635555892237,290.0100887852279,299.1928801624842,289.174555702109,299.78940476604606,288.2299716929128C300.38592936960794,287.2853876837166,300.98245397316975,286.2288576671148,301.57897857673163,285.06553709260817C302.1755031802935,283.9022165181015,302.7720277838554,282.6281256606885,303.36855238741725,281.2500482458728C303.9650769909791,279.8719708310571,304.56160159454095,278.3848433853593,305.1581261981028,276.7970726037141C305.75465080166464,275.209301822069,306.3511754052265,273.51474672488683,306.94770000878833,271.72342355600193C307.5442246123502,269.932100387117,308.140749215912,268.0368023629046,308.7372738194739,266.0491335904044C309.3337984230358,264.06146481790415,309.9303230265976,261.97316995961256,310.52684763015947,259.7974109210006C311.12337223372134,257.6216518823887,311.71989683728316,255.34914763317306,312.31642144084503,252.99457935873258C312.9129460444069,250.6400110842921,313.5094706479687,248.1931005696861,314.1059952515306,245.67000127435773C314.7025198550925,243.14690197902928,315.29904445865435,240.5363726666404,315.8955690622162,237.85598358676214C316.49209366577804,235.17559450688404,317.0886182693399,232.4131811992445,317.68514287290174,229.58766679508864C318.2816674764636,226.7621523909327,318.8781920800254,223.86049458676754,319.4747166835873,220.90289716182676C320.0712412871492,217.94529973688597,320.667765890711,214.91789342659243,321.26429049427287,211.84208224544392C321.86081509783475,208.7662710642954,322.45733970139656,205.62741505677198,323.05386430495844,202.44803007493573C323.6503889085203,199.26864509309948,324.24691351208213,196.03338200304617,324.843438115644,192.76577235442645C325.4399627192059,189.49816270580672,326.0364873227677,186.18221476312308,326.6330119263296,182.84237218321744C327.22953652989145,179.50252960331179,327.82606113345327,176.1222294790709,328.42258573701514,172.72671687499258C329.019110340577,169.33120427091424,329.61563494413883,165.90342114743245,330.2121595477007,162.46929655874735C330.8086841512626,159.03517197006224,331.4052087548244,155.57723311563177,332.0017333583863,152.12196934288195C332.59825796194815,148.66670557013214,333.19478256550997,145.19631371186628,333.79130716907184,141.73771392224842C334.3878317726337,138.27911413263055,334.98435637619554,134.81426095337747,335.5808809797574,131.37037060517483C336.1774055833193,127.92648025697217,336.7739301868811,124.48535637420746,337.370454790443,121.0743718330325C337.96697939400485,117.66338729185755,338.56350399756667,114.26428910763859,339.16002860112854,110.90446335812507C339.7565532046904,107.54463760861155,340.35307780825224,104.20587144987789,340.9496024118141,100.91541733595136C341.546127015376,97.62496322202483,342.1426516189378,94.36474721952752,342.7391762224997,91.1617386745659C343.33570082606155,87.95873012960428,343.9322254296234,84.79509431133137,344.52875003318525,81.69736606618162C345.1252746367471,78.59963782103186,345.72179924030894,75.55032292194464,346.3183238438708,72.57536920366738C346.9148484474327,69.60041548539012,347.5113730509945,66.6827709993713,348.1078976545564,63.84764375651804C348.70442225811826,61.01251651366478,349.3009468616801,58.24339853557986,349.89747146524195,55.56460574654781C350.49399606880377,52.88581295751585,351.09052067236564,50.28148238298832,351.68704527592746,47.774887022326C352.28356987948933,45.26829166166352,352.8800944830512,42.844313329338796,353.4766190866131,40.52503358257343C354.07314369017496,38.20575383580814,354.6696682937368,35.976897211312256,355.26619289729865,33.859208541734006C355.8627175008605,31.74151987215576,356.45924210442234,29.72166188445192,357.0557667079842,27.818901565103943C357.6522913115461,25.916141245755966,358.2488159151079,24.118171894937017,358.8453405186698,22.442646625646148C359.44186512223166,20.76712135635528,360.0383897257935,19.20285271692042,360.63491432935535,17.765749949358735C361.2314389329172,16.32864718179709,361.82796353647905,15.00872642694441,362.42448814004086,13.820030020276135C363.02101274360274,12.631333613607822,363.61753734716456,11.565160683873698,364.21406195072643,10.633571509348997C364.8105865542883,9.701982334824265,365.4071111578502,8.89763286836186,366.00363576141206,8.230494973127861C366.60016036497393,7.563357077893884,367.19668496853575,7.027511209664472,367.7932095720976,6.630744137945044C368.3897341756595,6.2339770662256155,368.9862587792213,5.84989254281129,369.5827833827832,5.84989254281129C370.17930798634507,5.84989254281129,370.7758325899069,5.866252114943488,371.37235719346876,5.898971259207883C371.9688817970306,5.9316904034722775,372.56540640059245,6.349571455660862,373.16193100415427,6.784319338147213C373.75845560771614,7.219067220633579,374.35498021127796,7.794012790179589,374.95150481483984,8.50745855412606C375.5480294184017,9.220904318072533,376.14455402196353,10.074813455076386,376.7410786255254,11.064993921826044C377.3376032290873,12.055174388575733,377.93412783264915,13.185259722555358,378.530652436211,14.448541354624126C379.1271770397729,15.711822986692855,379.7237016433347,17.113614545288254,380.3202262468966,18.64468371423851C380.91675085045847,20.175752883188768,381.5132754540203,21.843093116061592,382.10980005758216,23.634956368325675C382.706324661144,25.4268196205897,383.30284926470586,27.3518686094336,383.8993738682677,29.395863227822815C384.49589847182955,31.439857846212096,385.09242307539137,33.61310897436349,385.68894767895324,35.898924078661196C386.2854722825151,38.1847391829589,386.88199688607693,40.595045481717094,387.4785214896388,43.110753853609026C388.0750460932007,45.62646222550096,388.6715706967625,48.26107355415713,389.2680953003244,50.99317431001279C389.86461990388625,53.72527506586854,390.4611445074481,56.56988621882802,391.05766911101,59.503358388743266C391.6541937145719,62.43683055865842,392.2507183181337,65.47564032617946,392.84724292169557,68.59400732950397C393.4437675252574,71.71237433282838,394.04029212881926,74.92815547207576,394.6368167323811,78.21356040869C395.23334133594295,81.49896534530434,395.82986593950477,84.87314534597402,396.42639054306665,88.30643694918973C397.0229151466285,91.73972855240544,397.61943975019034,95.2524810064624,398.2159643537522,98.81331002798427C398.8124889573141,102.37413904950614,399.4090135608759,106.00448535799961,400.0055381644378,109.67141107832092C400.60206276799966,113.33833679864222,401.1985873715615,117.064257870559,401.79511197512335,120.81486434991209C402.3916365786852,124.56547082926528,402.9881611822471,128.3640283484053,403.584685785809,132.17504995443977C404.1812103893708,135.98607156047402,404.77773499293266,139.8335383168968,405.3742595964945,143.68099398611824C405.97078420005636,147.52844965533978,406.5673088036182,151.40044835854584,407.16383340718005,155.25978396976868C407.7603580107419,159.1191195809915,408.35688261430374,162.99076949325638,408.9534072178656,166.8370076534553C409.5499318214275,170.6832458136542,410.1464564249893,174.52931646435934,410.7429810285512,178.3372129309622C411.33950563211306,182.14510939756508,411.9360302356749,185.9401805636313,412.53255483923675,189.68438645307253C413.1290794427986,193.42859234251378,413.72560404636044,197.14721940671492,414.3221286499223,200.80244826760978C414.9186532534842,204.45767712850463,415.515177857046,208.07456085719636,416.1117024606079,211.6157596184417C416.70822706416976,215.15695837968704,417.3047516677316,218.6471180949655,417.90127627129345,222.04964083508185C418.49780087485533,225.4521635751982,419.09432547841715,228.7911126343765,419.690850081979,232.03089605913976C420.2873746855409,235.27067948390302,420.8838992891027,238.4346019221257,421.4804238926646,241.48834138366146C422.07694849622646,244.54208084519723,422.6734730997883,247.5080079856665,423.26999770335016,250.3533328283544C423.86652230691203,253.19865767104233,424.46304691047385,255.9446434623748,425.0595715140357,258.560290439789C425.6560961175976,261.1759374172032,426.2526207211594,263.68123121950936,426.8491453247213,266.0472146928397C427.44566992828317,268.41319816617005,428.042194531845,270.6584136771945,428.63871913540686,272.756191279771C429.23524373896873,274.85396888234743,429.83176834253055,276.8212478730271,430.4282929460924,278.63388030829833C431.0248175496543,280.44651274356954,431.6213421532161,282.11968225924426,432.217866756778,283.63198589139824C432.81439136033987,285.14428952355223,433.4109159639017,286.5090112033397,434.00744056746356,287.7077021012222C434.60396517102544,288.9063929991047,435.20048977458725,289.9503031721352,435.79701437814913,290.8241312786934C436.393538981711,291.69795938525164,436.9900635852728,292.410798618994,437.5865881888347,292.95067074057147C438.1831127923965,293.4905428621489,438.7796373959584,294.00879814868136,439.3761619995202,294.0633640081582C439.9726866030821,294.11792986763504,440.56921120664396,294.14521279737346,441.16573581020583,294.14521279737346C441.7622604137677,294.14521279737346,442.3587850173295,293.67985773475226,442.9553096208914,293.1864461594522C443.5518342244533,292.69303458415214,444.1483588280151,292.0249165075426,444.74488343157697,291.18474334557305C445.34140803513884,290.3445701836035,445.93793263870066,289.3292835716925,446.53445724226253,288.14540718763465C447.1309818458244,286.9615308035768,447.7275064493862,285.60341380160645,448.3240310529481,284.0814850412261C448.9205556565099,282.55955628084575,449.5170802600718,280.8655600628613,450.1136048636336,279.0138346253527C450.7101294671955,277.162109187844,451.3066540707573,275.1418010857235,451.9031786743192,272.9711324161741C452.49970327788105,270.80046374662464,453.0962278814429,268.46601050350637,453.6927524850048,265.98982260805616C454.2892770885667,263.51363471260606,454.8858016921285,260.8797653227748,455.48232629569037,258.1140050434732C456.07885089925225,255.34824476417154,456.67537550281406,252.4321925014214,457.27190010637594,249.39526093224632C457.8684247099378,246.35832936307122,458.46494931349963,243.17975274919476,459.0614739170615,239.89241562842264C459.6579985206233,236.60507850765063,460.2545231241852,233.1859611313042,460.851047727747,229.67123820761395C461.4475723313089,226.1565152839236,462.0440969348707,222.52104454682123,462.6406215384326,218.80407808628084C463.23714614199446,215.08711162574045,463.8336707455563,211.26153666697482,464.43019534911815,207.36943944437158C465.02671995268,203.47734222176834,465.62324455624184,199.48981145097667,466.2197691598037,195.45149475066134C466.8162937633656,191.413178050346,467.4128183669274,187.29355690520111,468.0093429704893,183.13953924247966C468.60586757405116,178.9855215797582,469.202392177613,174.76519131158824,469.79891678117485,170.52738877433256C470.39544138473667,166.28958623707703,470.99196598829855,162.0012247188502,471.58849059186036,157.7127240189461C472.18501519542224,153.42422331904183,472.78153979898406,149.10156906098382,473.37806440254593,144.79638457490748C473.9745890061078,140.49120008883114,474.5711136096696,136.16880083692888,475.1676382132315,131.88161710248795C475.7641628167934,127.59443336804704,476.3606874203552,123.3073808479393,476.95721202391707,119.07328216826195C477.55373662747894,114.83918348858461,478.15026123104076,110.62283604002317,478.74678583460263,106.47702502442391C479.3433104381645,102.33121400882465,479.9398350417263,98.22090903217308,480.5363596452882,94.19841607466637C481.1328842488501,90.17592311715966,481.7294088524119,86.20668142133708,482.32593345597377,82.34206727938363C482.92245805953564,78.47745313743005,483.5189826630975,74.68367743636013,484.1155072666594,71.01073122294531C484.71203187022127,67.3377850095306,485.3085564737831,63.75295495951665,485.90508107734496,60.30438999889503C486.50160568090683,56.855825038273416,487.09813028446865,53.51219133981099,487.6946548880305,50.31934145921562C488.2911794915924,47.126491578620254,488.8877040951542,44.05477178096562,489.4842286987161,41.14729071532281C490.08075330227797,38.23980964968,490.6772779058398,35.46888839308585,491.27380250940166,32.874455065358745C491.8703271129635,30.280021737631728,492.46685171652535,27.836658244605207,493.0633763200872,25.58069074896042C493.65990092364905,23.324723253315565,494.25642552721087,21.233268934725363,494.85295013077274,19.338650091489853C495.4494747343346,17.444031248254344,496.04599933789643,15.726160320862363,496.6425239414583,14.212977689547358C497.2390485450202,12.699795058232354,497.835573148582,11.374251075636238,498.4320977521439,10.259554303599828C499.02862235570575,9.144857531563417,499.62514695926757,8.227218709104543,500.22167156282944,7.524797057328897C500.8181961663913,6.82237540555325,501.41472076995314,6.177777992324915,502.011245373515,6.0450243929459475C502.6077699770769,5.91227079356698,503.2042945806387,5.845893993877496,503.8008191842006,5.845893993877496C504.3973437877624,5.845893993877496,504.99386839132427,6.360222576149943,505.5903929948861,6.941921558237652C506.18691759844796,7.523620540325379,506.7834422020098,8.32315127400297,507.37996680557166,9.336087886403845C507.97649140913353,10.349024498804784,508.57301601269546,11.58032233640936,509.16954061625734,13.019541232643178C509.7660652198192,14.458760128876904,510.36258982338103,16.114879757872547,510.9591144269429,17.9714012638064C511.5556390305048,19.82792276974025,512.1521636340666,21.897861067721234,512.7486882376285,24.158670268246283C513.3452128411903,26.41947946877126,513.9417374447521,28.888182611809537,514.538262048314,31.536256466956445C515.1347866518759,34.18433032210352,515.7313112554377,37.03273974534441,516.3278358589996,40.04711339912831C516.9243604625615,43.061487052912014,517.5208850661232,46.26662527926527,518.1174096696851,49.6224983896592C518.713934273247,52.97837150005334,519.3104588768089,56.513468503586125,519.9069834803707,60.182352061492594C520.5035080839326,63.85123561939883,521.1000326874944,67.68589601599271,521.6965572910563,71.63579973709724C522.2930818946181,75.58570345820178,522.8896064981799,79.68611441951926,523.4861311017418,83.88177438811977C524.0826557053036,88.07743435672054,524.6791803088655,92.4066137274318,525.2757049124274,96.80975954870115C525.8722295159893,101.21290536997023,526.468754119551,105.73098903564642,527.0652787231129,110.300649315735C527.6618033266748,114.87030959582387,528.2583279302366,119.53487670354478,528.8548525337985,124.22772122923351C529.4513771373604,128.92056575492194,530.0479017409222,133.68699993446873,530.644426344484,138.45771646986645C531.2409509480459,143.2284330052645,531.8374755516078,148.0503172800286,532.4340001551697,152.85202044162082C533.0305247587315,157.65372360321305,533.6270493622934,162.48326622146297,534.2235739658553,167.26793543941977C534.8200985694172,172.05260465737626,535.4166231729789,176.84109262113438,536.0131477765408,181.5600357493607C536.6096723801027,186.27897887758735,537.2061969836645,190.9772555034888,537.8027215872264,195.58159420877868C538.3992461907883,200.18593291406827,538.99577079435,204.74489533364616,539.5922953979119,209.18606798109914C540.1888200014738,213.6272406285524,540.7853446050357,217.9983527301411,541.3818692085975,222.22863009349746C541.9783938121594,226.45890745685352,542.5749184157212,230.59472339365755,543.1714430192831,234.56773216123645C543.7679676228449,238.54074092881535,544.3644922264067,242.395433973492,544.9610168299686,246.0666826989708C545.5575414335304,249.7379314244498,546.1540660370923,253.26782264590332,546.7505906406542,256.5952245141099C547.3471152442161,259.9226263823162,547.9436398477778,263.0867073611233,548.5401644513397,266.0310939082095C549.1366890549016,268.97548045529595,549.7332136584635,271.73592404615374,550.3297382620253,274.2615437966278C550.9262628655872,276.78716354710167,551.522787469149,279.10981654551597,552.1193120727108,281.1848124110533C552.7158366762727,283.25980827659083,553.3123612798346,285.1146597579879,553.9088858833965,286.7115189898523C554.5054104869583,288.3083782217167,555.1019350905201,289.66999729931194,555.698459694082,290.7659678022397C556.2949842976439,291.8619383051674,556.8915089012056,292.7098751026638,557.4880335047675,293.2873420074187C558.0845581083294,293.8648089121737,558.6810827118913,294.2307692307692,559.2776073154532,294.2307692307692C559.8741319190151,294.2307692307692,560.4706565225769,294.0099266057357,561.0671811261387,293.5682413556686C561.6637057297006,293.1265561056015,562.2602303332625,292.31708288718,562.8567549368244,291.2893718891655C563.4532795403862,290.2616608911511,564.049804143948,288.9614615780221,564.6463287475099,287.401975367582C565.2428533510717,285.84248915714187,565.8393779546335,284.01178662644037,566.4359025581954,281.9324546265249C567.0324271617573,279.85312262660926,567.6289517653191,277.5069802537857,568.225476368881,274.9259833680887C568.8220009724429,272.34498648239185,569.4185255760046,269.50475098815843,570.0150501795665,266.4464733123436C570.6115747831284,263.38819563652856,571.2080993866903,260.0814125086768,571.8046239902521,256.57631731319896C572.401148593814,253.0712221177213,572.9976731973758,249.3314738323743,573.5941978009376,245.4159021394771C574.1907224044995,241.50033044657968,574.7872470080614,237.36699620135337,575.3837716116233,233.08288715581503C575.9802962151851,228.79877811027694,576.5768208187469,224.31671469496888,577.1733454223088,219.7112478662479C577.7698700258707,215.10578103752692,578.3663946294324,210.3249254391111,578.9629192329943,205.45008618348908C579.5594438365562,200.57524692786674,580.155968440118,195.55014228681836,580.7524930436799,190.4622123325148C581.3490176472418,185.37428237821157,581.9455422508036,180.16352997244172,582.5420668543654,174.9225064576688C583.1385914579273,169.6814829428952,583.7351160614893,164.34712396236017,584.3316406650512,159.0160712438752C584.928165268613,153.6850185253909,585.5246898721748,148.29185050204532,586.1212144757367,142.936190146761C586.7177390792986,137.58052979147666,587.3142636828603,132.19536365193443,587.9107882864222,126.88210911216927C588.5073128899841,121.5688545724038,589.1038374935459,116.25971936937783,589.7003620971078,111.0566629081691C590.2968867006697,105.8536064469607,590.8934113042314,100.68890988461844,591.4899359077933,95.66377034491785C592.0864605113552,90.63863080521695,592.6829851149171,85.68628468623137,593.279509718479,80.90582566996466C593.8760343220408,76.12536665369825,594.4725589256026,71.45188732478816,595.0690835291645,66.98101624731842C595.6656081327263,62.5101451698484,596.2621327362882,58.17973991035578,596.8586573398501,54.08059920514546C597.455181943412,49.98145849993541,598.0517065469737,46.055109566493776,598.6482311505356,42.38617201605723C599.2447557540975,38.717234465620685,599.8412803576592,35.25179315754236,600.4378049612211,32.06697390252617C601.034329564783,28.88215464750978,601.6308541683449,25.929458274521334,602.2273787719067,23.277256485959583C602.8239033754686,20.625054697398003,603.4204279790304,18.23107969700691,604.0169525825922,16.153763171156072C604.6134771861541,14.076446645305102,605.210001789716,12.280511295347043,605.8065263932779,10.813357330854274C606.4030509968397,9.346203366361598,606.9995756004015,8.180233554457187,607.5961002039634,7.350839384199617C608.1926248075252,6.521445213941993,608.7891494110871,5.836992309308812,609.385674014649,5.836992309308812C609.9821986182109,5.836992309308812,610.5787232217727,5.996959526407598,611.1752478253346,6.316893960605171C611.7717724288965,6.636828394802723,612.3682970324583,7.64438828033203,612.9648216360201,8.808532749934614C613.561346239582,9.972677219537271,614.1578708431439,11.476913676215604,614.7543954467058,13.301760778221023C615.3509200502676,15.126607880226327,615.9474446538294,17.2899028106005,616.5439692573913,19.757615361966657C617.1404938609531,22.225327913332972,617.737018464515,25.02497197248867,618.3335430680769,28.108036086418565C618.9300676716388,31.19110020034826,619.5265922752005,34.594657256554434,620.1231168787624,38.256000045545306C620.7196414823243,41.91734283453618,621.316166085886,45.88283832195059,621.9126906894479,50.07609282036381C622.5092152930098,54.2693473187773,623.1057398965717,58.74560682751281,623.7022645001335,63.41552703602554C624.2987891036954,68.08544724453797,624.8953137072572,73.01258728858733,625.491838310819,78.0956140714392C626.0883629143809,83.17864085429139,626.6848875179428,88.48871149157286,627.2814121215047,93.9136877331378C627.8779367250665,99.33866397470241,628.4744613286283,104.95644054434966,629.0709859321902,110.64547152082784C629.6675105357521,116.33450249730637,630.2640351393139,122.17842121606004,630.8605597428758,128.047873592008C631.4570843464377,133.91732596795555,632.0536089499994,139.90055552342807,632.6501335535613,145.86218577651434C633.2466581571232,151.823816029601,633.8431827606851,157.85545466049493,634.4397073642469,163.81765511052683C635.0362319678088,169.77985556055873,635.6327565713707,175.7662404640488,636.2292811749326,181.63538847670569C636.8258057784944,187.5045364893622,637.4223303820562,193.35064978845554,638.0188549856181,199.0325431864671C638.61537958918,204.71443658447905,639.2119041927418,210.32538957127844,639.8084287963037,215.72674886477614C640.4049533998656,221.1281081582735,641.0014780034273,226.4106831530113,641.5980026069892,231.44069894745235C642.1945272105511,236.4707147418934,642.7910518141128,241.3349417246284,643.3875764176747,245.9068436314224C643.9841010212366,250.47874553821669,644.5806256247985,254.83948877357307,645.1771502283603,258.8721103882171C645.7736748319222,262.9047320028609,646.370199435484,266.68326024151486,646.9667240390459,270.10257331928597C647.5632486426077,273.5218863970573,648.1597732461696,276.64739895360884,648.7562978497315,279.3879888548443C649.3528224532934,282.1285787560796,649.9493470568551,284.5396588822726,650.545871660417,286.5461127266985C651.1423962639789,288.55256657112454,651.7389208675407,290.19853311385305,652.3354454711026,291.42671192140006C652.9319700746645,292.654890728947,653.5284946782263,293.90150222879373,654.1250192817881,293.91518557198054C654.72154388535,293.92886891516736,655.3180684889118,293.93571058676076,655.9145930924736,293.93571058676076C656.5111176960355,293.93571058676076,657.1076422995975,292.69671343669194,657.7041669031594,291.4538313343199C658.3006915067213,290.210949231948,658.897216110283,288.543569017154,659.4937407138449,286.47841797252926C660.0902653174068,284.4132669279044,660.6867899209686,281.92501289623556,661.2833145245305,279.0629250665707C661.8798391280924,276.200837236906,662.4763637316541,272.9246069617679,663.072888335216,269.30589099454073C663.6694129387779,265.6871750273136,664.2659375423397,261.6709318978752,664.8624621459015,257.3506292632076C665.4589867494634,253.0303266285397,666.0555113530253,248.33671917854784,666.6520359565872,243.38407518653403C667.248560560149,238.43143119452057,667.8450851637108,233.13712078238888,668.4416097672727,227.63476531112593C669.0381343708345,222.13240983986265,669.6346589743964,216.3271040594626,670.2311835779583,210.3699423589552C670.8277081815202,204.41278065844816,671.4242327850819,198.19797544920164,672.0207573886438,191.89179510808265C672.6172819922057,185.58561476696326,673.2138065957676,179.07305413158767,673.8103311993294,172.53286031224008C674.4068558028913,165.9926664928929,675.0033804064531,159.30253492841004,675.5999050100149,152.65063219199837C676.1964296135768,145.9987294555867,676.7929542171386,139.2575985510228,677.3894788207004,132.62144389377002C677.9860034242623,125.98528923651682,678.5825280278242,119.3238462684266,679.1790526313861,112.83370424848042C679.775577234948,106.34356222853464,680.3721018385097,99.89415486062569,680.9686264420716,93.68059177409404C681.5651510456335,87.4670286875616,682.1616756491954,81.36106591012464,682.7582002527573,75.55232572928827C683.3547248563192,69.74358554845264,683.951249459881,64.1088406256308,684.5477740634428,58.828150689077916C685.1442986670047,53.54746075252503,685.7408232705665,48.505327023589054,686.3373478741283,43.868186109970964C686.9338724776902,39.23104519635258,687.5303970812521,34.893799940897495,688.126921684814,31.00530520736862C688.7234462883758,27.116810473839998,689.3199708919376,23.58494554098043,689.9164954954995,20.537217708798323C690.5130200990614,17.489489876616023,691.1095447026232,14.84917023962683,691.7060693061851,12.718938214275568C692.302593909747,10.58870618892444,692.8991185133087,8.909418872918843,693.4956431168706,7.755825556690979C694.0921677204325,6.602232240463041,694.6886923239944,5.79737831690835,695.2852169275562,5.79737831690835C695.8817415311181,5.79737831690835,696.4782661346799,6.1755746011180195,697.0747907382417,6.931967169537359C697.6713153418036,7.688359737956698,698.2678399453654,9.253935608249606,698.8643645489273,11.18267574263524C699.4608891524891,13.111415877020999,700.057413756051,15.571120356281538,700.6539383596129,18.504407975851734C701.2504629631748,21.437695595421744,701.8469875667365,24.894425631187005,702.4435121702984,28.782401460055667C703.0400367738603,32.67037728892458,703.6365613774221,37.062394145235764,704.233085980984,41.832262949064614C704.8296105845459,46.60213175289316,705.4261351881077,51.844757338479724,706.0226597916695,57.4016142830277C706.6191843952314,62.95847122757603,707.2157089987933,68.9451889130485,707.8122336023551,75.17340461635365C708.408758205917,81.4016203196588,709.0052828094789,88.00574433835376,709.6018074130408,94.77090850285859C710.1983320166026,101.53607266736299,710.7948566201644,108.61297981394883,711.3913812237263,115.76438960338126C711.9879058272882,122.91579939281415,712.58443043085,130.3057024135683,713.1809550344119,137.67936723945462C713.7774796379738,145.05303206534046,714.3740042415355,152.58425915182167,714.9705288450974,160.00637855869775C715.5670534486593,167.4284979655743,716.1635780522212,174.92122744672466,716.760102655783,182.21208368071254C717.3566272593449,189.50293991469997,717.9531518629067,196.77332396262486,718.5496764664686,203.75151596262373C719.1462010700304,210.7297079626226,719.7427256735922,217.59430429424805,720.3392502771541,224.08123568070576C720.9357748807159,230.56816706716387,721.5322994842778,236.84858367973382,722.1288240878397,242.6731042813711C722.7253486914016,248.49762488300803,723.3218732949633,254.02527027080941,723.9183978985252,259.02835929052856C724.5149225020871,264.03144831024804,725.111447105649,268.65226885084627,725.7079717092108,272.6916383996868C726.3044963127727,276.731007948527,726.9010209163345,280.310085697193,727.4975455198963,283.26457658357094C728.0940701234582,286.21906746994904,728.6905947270201,288.644945925266,729.287119330582,290.41858371795473C729.8836439341438,292.1922215106434,730.4801685377056,293.9064033397035,731.0766931412675,293.9064033397035C731.6732177448293,293.9064033397035,732.2697423483912,293.7949545822887,732.8662669519531,293.5720570674591C733.462791555515,293.34915955262954,734.0593161590768,291.40168788098174,734.6558407626387,289.35879473502195C735.2523653662006,287.31590158906226,735.8488899697624,284.6085594123653,736.4454145733242,281.31469819170087C737.0419391768861,278.02083697103626,737.638463780448,274.07053526093074,738.2349883840099,269.59562741103457C738.8315129875717,265.1207195611387,739.4280375911335,260.0158606578359,740.0245621946954,254.46525109232493C740.6210867982572,248.91464152681394,741.217611401819,242.77907531799013,741.8141360053809,236.29197001796865C742.4106606089427,229.80486471794674,743.0071852125046,222.79579362516515,743.6037098160665,215.54261929219462C744.2002344196284,208.28944495922454,744.7967590231901,200.5942305196462,745.393283626752,192.77292402014695C745.9898082303139,184.9516175206472,746.5863328338758,176.78351140456547,747.1828574374376,168.61478029519753C747.7793820409995,160.4460491858301,748.3759066445613,152.03890660125447,748.9724312481231,143.76053736394084C749.568955851685,135.4821681266267,750.1654804552469,127.08423809178578,750.7620050588088,118.94456487131421C751.3585296623706,110.80489165084316,751.9550542659324,102.6718155187383,752.5515788694943,94.9224980411129C753.1481034730562,87.1731805634875,753.7446280766179,79.56036627679336,754.3411526801798,72.44866000556183C754.9376772837417,65.33695373432985,755.5342018873035,58.49152727593549,756.1307264908654,52.25226041372255C756.7272510944273,46.01299355150962,757.3237756979892,40.165559553712164,757.920300301551,35.01305883228423C758.5168249051129,29.860558110856292,759.1133495086748,25.217027165756193,759.7098741122367,21.337256085154934C760.3063987157985,17.45748500455392,760.9029233193603,14.19124444982404,761.4994479229222,11.73443234867716C762.095972526484,9.27762024753028,762.6924971300458,6.874830479550099,763.2890217336077,6.596383478273651C763.8855463371696,6.317936476997185,764.4820709407314,6.178712976358952,765.0785955442933,6.178712976358952C765.6751201478552,6.178712976358952,766.2716447514169,8.322229914504266,766.8681693549788,10.586013028700336C767.4646939585407,12.84979614289655,768.0612185621026,15.945551709403551,768.6577431656644,19.7614116615361C769.2542677692263,23.577271613668408,769.8507923727881,28.21558955275757,770.44731697635,33.48117274149462C771.0438415799118,38.746755930232,771.6403661834737,44.796468872587695,772.2368907870356,51.35491079395965C772.8334153905975,57.913352715331186,773.4299399941592,65.188782537241,774.0264645977211,72.83182426972485C774.622989201283,80.4748660022087,775.2195138048447,88.73997959698646,775.8160384084066,97.21316118886276C776.4125630119685,105.6863427807396,777.0090876155303,114.66102408273338,777.6056122190922,123.6709138209844C778.2021368226541,132.68080355923485,778.7986614262159,142.04916341888836,779.3951860297777,151.27249961836705C779.9917106333396,160.49583581784634,780.5882352369015,169.91639503019883,781.1847598404634,179.01093101785838C781.7812844440252,188.10546700551794,782.3778090475871,197.2229590671345,782.974333651149,205.83971554432446C783.5708582547109,214.4564720215139,784.1673828582726,222.914924401947,784.7639074618345,230.71146988099665C785.3604320653964,238.50801536004678,785.9569566689582,245.96468500880576,786.5534812725201,252.61898841862367C787.150005876082,259.2732918284412,787.7465304796438,265.41295639281714,788.3430550832056,270.6372903399032C788.9395796867675,275.8616242869896,789.5361042903294,280.41066936048804,790.1326288938913,283.9649921011407C790.7291534974531,287.5193148417931,791.3256781010149,290.47853120633147,791.9222027045768,291.96322678381864C792.5187273081386,293.4479223613059,793.1152519117005,294.19027015004957,793.7117765152624,294.19027015004957C794.3083011188243,294.19027015004957,794.904825722386,292.67629443927086,795.5013503259479,290.4300460433981C796.0978749295098,288.1837976475253,796.6943995330715,284.8967452171941,797.2909241366334,280.71277977481276C797.8874487401953,276.5288143324311,798.4839733437572,271.30898436990657,799.080497947319,265.32625338910884C799.6770225508809,259.34352240831146,800.2735471544427,252.37472058656684,800.8700717580045,244.81639389002777C801.4665963615664,237.25806719348822,802.0631209651283,228.80849037700722,802.6596455686902,219.9762932098727C803.256170172252,211.14409604273874,803.8526947758138,201.55865377082182,804.4492193793757,191.82321088722253C805.0457439829376,182.08776800362324,805.6422685864993,171.77632664528005,806.2387931900612,161.5636359082769C806.8353177936231,151.35094517127243,807.431842397185,140.77270851447577,808.0283670007469,130.54706646519958C808.6248916043088,120.3214244159247,809.2214162078706,109.96587469091662,809.8179408114324,100.2097836126236C810.4144654149943,90.45369253432996,811.0109900185562,80.81872950906609,811.6075146221181,72.01051999543975C812.2040392256799,63.20231048181397,812.8005638292417,54.77043266290959,813.3970884328036,47.36052653086699C813.9936130363654,39.95062039882392,814.5901376399273,33.16417964701482,815.1866622434892,27.551083203183055C815.7831868470511,21.93798675935165,816.3797114506128,17.17470312730749,816.9762360541747,13.681947867877113C817.5727606577366,10.189192608446735,818.1692852612983,6.594551646600792,818.7658098648602,6.594551646600792C819.3623344684221,6.594551646600792,819.958859071984,6.667666192169539,820.5553836755458,6.813895283307033C821.1519082791077,6.9601243744445185,821.7484328826695,10.733052945387932,822.3449574862314,14.503045946796874C822.9414820897932,18.273038948206054,823.5380066933551,23.3548640536357,824.134531296917,29.433853291761864C824.7310559004789,35.51284252988764,825.3275805040406,42.86369267196995,825.9241051076025,50.97698137555227C826.5206297111644,59.0902700791351,827.1171543147262,68.3647555812402,827.7136789182881,78.11358551325768C828.31020352185,87.86241544527454,828.9067281254117,98.59301180957613,829.5032527289736,109.469960967655C830.0997773325355,120.34691012573387,830.6963019360973,131.96341322564513,831.2928265396591,143.37528046173088C831.889351143221,154.78714769781809,832.485875746783,166.64365218911365,833.0824003503449,177.94116438417402C833.6789249539067,189.23867657923293,834.2754495574685,200.64717107122485,834.8719741610304,211.16035363208888C835.4684987645923,221.67353619295358,836.0650233681541,231.9426945746508,836.661547971716,241.02025974936004C837.2580725752779,250.0978249240687,837.8545971788396,258.57508154969105,838.4511217824015,265.6257446803429C839.0476463859634,272.67640781099476,839.6441709895252,278.7909710491955,840.240695593087,283.3242385332712C840.8372201966489,287.8575060173473,841.4337448002108,292.5045381341425,842.0302694037726,292.82534958479783C842.6267940073345,293.14616103545313,843.2233186108963,293.3065667607808,843.8198432144582,293.3065667607808C844.41636781802,293.3065667607808,845.0128924215819,288.9262877955167,845.6094170251438,284.4966022404302C846.2059416287057,280.066916685344,846.8024662322674,273.98531484480463,847.3989908358293,266.72845343026324C847.9955154393912,259.47159201572134,848.592040042953,250.62263487739554,849.1885646465149,240.95543375317982C849.7850892500768,231.2882326289647,850.3816138536386,220.19954794038574,850.9781384572004,208.72524668497115C851.5746630607623,197.25094542955657,852.1711876643241,184.63215832359654,852.7677122678859,172.10962622069235C853.3642368714478,159.58709411778736,853.9607614750097,146.29108422143622,854.5572860785716,133.59005406754352C855.1538106821334,120.88902391365163,855.7503352856952,107.85924314513329,856.3468598892571,95.9034452973385C856.943384492819,83.94764744954217,857.5399090963809,72.15399764690108,858.1364336999428,61.85526698077061C858.7329583035047,51.556536314641455,859.3294829070664,41.92352495822409,859.9260075106283,34.111061300558845C860.5225321141902,26.298597642893597,861.119056717752,19.630591292568862,861.7155813213138,14.980485034779122C862.3121059248757,10.330378776989086,862.9086305284376,6.21042375382018,863.5051551319995,6.21042375382018C864.1016797355613,6.21042375382018,864.6982043391231,7.075336207302409,865.294728942685,8.805161114266866C865.8912535462468,10.534986021231433,866.4877781498087,16.418092241707363,867.0843027533706,22.891677112077446C867.6808273569325,29.365261982447116,868.2773519604942,37.91216628453137,868.8738765640561,47.64667033648544C869.470401167618,57.381174388440144,870.0669257711799,69.03749240582846,870.6634503747417,81.29870142380435C871.2599749783036,93.55991044177945,871.8564995818654,107.4191478316,872.4530241854272,121.21392444433803C873.0495487889891,135.00870105707608,873.6460733925509,149.92069547346702,874.2425979961127,164.06736110023257C874.8391225996746,178.21402672699904,875.4356472032365,192.87099718077516,876.0321718067984,206.09391820493403C876.6286964103602,219.31683922909207,877.225221013922,232.3626706722561,877.8217456174839,243.4048872451836C878.4182702210458,254.4471038181118,879.0147948246076,264.60214922860735,879.6113194281695,272.34721764250065C880.2078440317314,280.0922860563935,880.8043686352931,287.1926437190289,881.400893238855,289.87529772854276C881.9974178424169,292.5579517380568,882.5939424459788,293.89927874281375,883.1904670495406,293.89927874281375C883.7869916531025,293.89927874281375,884.3835162566644,289.30927079267605,884.9800408602263,283.57111506254194C885.5765654637881,277.8329593324082,886.1730900673499,269.4560567842831,886.7696146709118,259.4703443620112C887.3661392744737,249.48463193973865,887.9626638780355,236.97396118090288,888.5591884815974,223.6568405289079C889.1557130851593,210.3397198769138,889.752237688721,194.88558382261348,890.3487622922829,179.56762045004444C890.9452868958448,164.24965707747444,891.5418114994067,147.4380353038883,892.1383361029685,131.74906029349057C892.7348607065304,116.06008528309383,893.3313853100922,99.72670763726242,893.927909913654,85.4337703876609C894.5244345172159,71.14083313805938,895.1209591207777,57.179884741219276,895.7174837243396,45.99143679588141C896.3140083279014,34.80298885054284,896.9105329314633,24.947348716000718,897.5070575350252,18.303082715632343C898.1035821385871,11.65881671526439,898.7001067421488,6.125840793671443,899.2966313457107,6.125840793671443C899.8931559492726,6.125840793671443,900.4896805528344,7.9264173239077795,901.0862051563963,11.527570384380454C901.6827297599582,15.128723444852898,902.27925436352,24.287642804385534,902.8757789670818,34.47464674650615C903.4723035706437,44.66165068862677,904.0688281742055,58.13595588345944,904.6653527777673,72.64959403710418C905.2618773813292,87.16323219074984,905.8584019848911,104.50789555950138,906.454926588453,121.55647566837806C907.0514511920148,138.60505577725473,907.6479757955767,157.6151990428512,908.2445003991386,174.94107469036425C908.8410250027005,192.2669503378773,909.4375496062623,210.3520453666298,910.0340742098242,225.5117295534564C910.6305988133861,240.67141374028205,911.2271234169478,255.1934764953457,911.8236480205097,265.8991798113217C912.4201726240716,276.60488312729836,913.0166972276335,287.72633371769564,913.6132218311953,289.7459494493134C914.2097464347572,291.76556518093105,914.806271038319,292.2704691138354,915.4027956418809,292.77537304673984">
  </path>
  <use xlink:href="#curve" transform="translate(1834,0) scale(-1,1)" />
</svg>
