<svg fill="#FFFFFF" height="8" width="8" preserveAspectRatio="xMinYMin slice" overflow="visible"  transform="translate(0, 6)" xmlns="http://www.w3.org/2000/svg">

<g id="layer1" transform="scale(0.5)">
<path d="M 55.349998474121094 54.650001525878906 C 54.776668548583984 55.06999969482422 54.15999984741211 55.356666564941406 53.5 55.51000213623047 C 52.84000015258789 55.65666580200195 52.176666259765625 55.72999954223633 51.5099983215332 55.72999954223633 C 49.21666717529297 55.72999954223633 47.176666259765625 55.393333435058594 45.38999938964844 54.720001220703125 C 43.61000061035156 54.040000915527344 42.04666519165039 53.106666564941406 40.70000076293945 51.91999816894531 C 39.3466682434082 50.72666549682617 38.1966667175293 49.32666778564453 37.25 47.720001220703125 C 36.310001373291016 46.11333465576172 35.52333450317383 44.380001068115234 34.88999938964844 42.52000045776367 C 34.26333236694336 40.66666793823242 33.78333282470703 38.72666549682617 33.45000076293945 36.70000076293945 C 33.11666488647461 34.67333221435547 32.88999938964844 32.650001525878906 32.77000045776367 30.630001068115234 C 32.65666580200195 28.616666793823242 32.62666702270508 26.643333435058594 32.68000030517578 24.709999084472656 C 32.7400016784668 22.770000457763672 32.85333251953125 20.97333335876465 33.02000045776367 19.31999969482422 C 32.720001220703125 19.773332595825195 32.35333251953125 20.49333381652832 31.920000076293945 21.479999542236328 C 31.486665725708008 22.46666717529297 31.003334045410156 23.6200008392334 30.469999313354492 24.940000534057617 C 29.94333267211914 26.266666412353516 29.39666748046875 27.713333129882812 28.829999923706055 29.279998779296875 C 28.263334274291992 30.84000015258789 27.696666717529297 32.41666793823242 27.1299991607666 34.01000213623047 C 26.56999969482422 35.60333251953125 26.02666664123535 37.163333892822266 25.5 38.689998626708984 C 24.97333335876465 40.22333526611328 24.50666618347168 41.61666488647461 24.100000381469727 42.869998931884766 C 23.68666648864746 44.130001068115234 23.33333396911621 45.20000076293945 23.040000915527344 46.08000183105469 C 22.746665954589844 46.95333480834961 22.559999465942383 47.5433349609375 22.479999542236328 47.849998474121094 C 22.413333892822266 48.04999923706055 22.323333740234375 48.29999923706055 22.209999084472656 48.599998474121094 C 22.10333251953125 48.900001525878906 21.969999313354492 49.19333267211914 21.809999465942383 49.47999954223633 C 21.649999618530273 49.766666412353516 21.46666717529297 50.01000213623047 21.260000228881836 50.209999084472656 C 21.046667098999023 50.40999984741211 20.80666732788086 50.51000213623047 20.540000915527344 50.51000213623047 C 20.239999771118164 50.51000213623047 19.989999771118164 50.38666534423828 19.790000915527344 50.13999938964844 C 19.59000015258789 49.900001525878906 19.426666259765625 49.61333465576172 19.299999237060547 49.279998779296875 C 19.1733341217041 48.9466667175293 19.073333740234375 48.61000061035156 19 48.27000045776367 C 18.920000076293945 47.936668395996094 18.863332748413086 47.66999816894531 18.829999923706055 47.470001220703125 C 18.729999542236328 46.77000045776367 18.639999389648438 45.88333511352539 18.559999465942383 44.810001373291016 C 18.47333335876465 43.73666763305664 18.399999618530273 42.54666519165039 18.34000015258789 41.2400016784668 C 18.286666870117188 39.93333435058594 18.24333381652832 38.540000915527344 18.209999084472656 37.060001373291016 C 18.176666259765625 35.58000183105469 18.14666748046875 34.09000015258789 18.1200008392334 32.59000015258789 C 18.093334197998047 31.09000015258789 18.0766658782959 29.616666793823242 18.06999969482422 28.170000076293945 C 18.06333351135254 26.72333335876465 18.053333282470703 25.366666793823242 18.040000915527344 24.100000381469727 C 18.03333282470703 22.84000015258789 18.030000686645508 21.706666946411133 18.030000686645508 20.700000762939453 C 18.030000686645508 19.69333267211914 18.030000686645508 18.889999389648438 18.030000686645508 18.290000915527344 C 17.663333892822266 19.123332977294922 17.22333335876465 20.18666648864746 16.709999084472656 21.479999542236328 C 16.203332901000977 22.766666412353516 15.65333366394043 24.213333129882812 15.0600004196167 25.81999969482422 C 14.460000038146973 27.426666259765625 13.84000015258789 29.156665802001953 13.199999809265137 31.010000228881836 C 12.553333282470703 32.856666564941406 11.916666984558105 34.76000213623047 11.289999961853027 36.720001220703125 C 10.66333293914795 38.68000030517578 10.0600004196167 40.65666580200195 9.479999542236328 42.650001525878906 C 8.899999618530273 44.643333435058594 8.386666297912598 46.57666778564453 7.940000057220459 48.45000076293945 C 7.886666774749756 48.616668701171875 7.823333263397217 48.81999969482422 7.75 49.060001373291016 C 7.670000076293945 49.30666732788086 7.573333263397217 49.540000915527344 7.460000038146973 49.76000213623047 C 7.340000152587891 49.97333526611328 7.193333148956299 50.15999984741211 7.019999980926514 50.31999969482422 C 6.8466668128967285 50.47999954223633 6.633333206176758 50.560001373291016 6.380000114440918 50.560001373291016 C 6.146666526794434 50.560001373291016 5.936666488647461 50.483333587646484 5.75 50.33000183105469 C 5.563333511352539 50.18333435058594 5.409999847412109 50.003334045410156 5.289999961853027 49.790000915527344 C 5.163333415985107 49.58333206176758 5.059999942779541 49.356666564941406 4.980000019073486 49.11000061035156 C 4.9066667556762695 48.869998931884766 4.863333225250244 48.650001525878906 4.849999904632568 48.45000076293945 C 4.763333320617676 48.029998779296875 4.690000057220459 47.56999969482422 4.630000114440918 47.06999969482422 C 4.576666831970215 46.563331604003906 4.526666641235352 46.04666519165039 4.480000019073486 45.52000045776367 C 4.440000057220459 44.99333190917969 4.4033331871032715 44.47666549682617 4.369999885559082 43.970001220703125 C 4.336666584014893 43.4566650390625 4.303333282470703 42.983333587646484 4.269999980926514 42.54999923706055 C 4.083333492279053 40.25666809082031 3.9533333778381348 37.98666763305664 3.880000114440918 35.73999786376953 C 3.806666612625122 33.5 3.7699999809265137 31.239999771118164 3.7699999809265137 28.959999084472656 C 3.7699999809265137 26.719999313354492 3.806666612625122 24.49333381652832 3.880000114440918 22.280000686645508 C 3.9533333778381348 20.073333740234375 4.066666603088379 17.84000015258789 4.21999979019165 15.579999923706055 C 4.266666889190674 14.926666259765625 4.340000152587891 14.19333267211914 4.440000057220459 13.379999160766602 C 4.546666622161865 12.566667556762695 4.746666431427002 11.799999237060547 5.039999961853027 11.079999923706055 C 5.326666831970215 10.360000610351562 5.753333568572998 9.756668090820312 6.320000171661377 9.270000457763672 C 6.880000114440918 8.790000915527344 7.643333435058594 8.549999237060547 8.609999656677246 8.549999237060547 C 8.850000381469727 8.549999237060547 9.053333282470703 8.60333251953125 9.220000267028809 8.709999084472656 C 9.386666297912598 8.816665649414062 9.470000267028809 9.003334045410156 9.470000267028809 9.270000457763672 L 9.470000267028809 9.520000457763672 C 9.316666603088379 10.526668548583984 9.166666984558105 11.530000686645508 9.020000457763672 12.530000686645508 C 8.866666793823242 13.523332595825195 8.706666946411133 14.540000915527344 8.539999961853027 15.579999923706055 C 8.140000343322754 18.926666259765625 7.800000190734863 22.270000457763672 7.519999980926514 25.610000610351562 C 7.246666431427002 28.950000762939453 7.110000133514404 32.310001373291016 7.110000133514404 35.689998626708984 C 7.110000133514404 37.016666412353516 7.133333206176758 38.323333740234375 7.179999828338623 39.61000061035156 C 7.233333110809326 40.89666748046875 7.326666831970215 42.19333267211914 7.460000038146973 43.5 C 8.613333702087402 39.91999816894531 9.630000114440918 36.746665954589844 10.510000228881836 33.97999954223633 C 11.390000343322754 31.220001220703125 12.16333293914795 28.803333282470703 12.829999923706055 26.729999542236328 C 13.50333309173584 24.649999618530273 14.069999694824219 22.8799991607666 14.529999732971191 21.420000076293945 C 14.989999771118164 19.953332901000977 15.380000114440918 18.726667404174805 15.699999809265137 17.739999771118164 C 16.013334274291992 16.746665954589844 16.263334274291992 15.953332901000977 16.450000762939453 15.360000610351562 C 16.636667251586914 14.766666412353516 16.786666870117188 14.30666732788086 16.899999618530273 13.979999542236328 C 17.020000457763672 13.65333366394043 17.10333251953125 13.416666030883789 17.149999618530273 13.270000457763672 C 17.203332901000977 13.116666793823242 17.253334045410156 12.979999542236328 17.299999237060547 12.860000610351562 C 17.553333282470703 12.293333053588867 17.89666748046875 11.783332824707031 18.329999923706055 11.329999923706055 C 18.770000457763672 10.876667022705078 19.329999923706055 10.650001525878906 20.010000228881836 10.650001525878906 C 20.483333587646484 10.650001525878906 20.866666793823242 10.770000457763672 21.15999984741211 11.010000228881836 C 21.453332901000977 11.24333381652832 21.683332443237305 11.536666870117188 21.850000381469727 11.889999389648438 C 22.016666412353516 12.236665725708008 22.1299991607666 12.620000839233398 22.190000534057617 13.040000915527344 C 22.25 13.459999084472656 22.280000686645508 13.84666633605957 22.280000686645508 14.200000762939453 C 22.239999771118164 16.793333053588867 22.163333892822266 19.356666564941406 22.049999237060547 21.889999389648438 C 21.93000030517578 24.43000030517578 21.829999923706055 26.946666717529297 21.75 29.439998626708984 C 21.663333892822266 31.933334350585938 21.623332977294922 34.40999984741211 21.6299991607666 36.869998931884766 C 21.643333435058594 39.33000183105469 21.75666618347168 41.78333282470703 21.969999313354492 44.22999954223633 C 22.643333435058594 42.25666809082031 23.263334274291992 40.393333435058594 23.829999923706055 38.63999938964844 C 24.40333366394043 36.893333435058594 24.94333267211914 35.22333526611328 25.450000762939453 33.630001068115234 C 25.963333129882812 32.0433349609375 26.456666946411133 30.51333236694336 26.93000030517578 29.040000915527344 C 27.40999984741211 27.566665649414062 27.906665802001953 26.110000610351562 28.420000076293945 24.670000076293945 C 28.926666259765625 23.229999542236328 29.456666946411133 21.790000915527344 30.010000228881836 20.350000381469727 C 30.56333351135254 18.90999984741211 31.1733341217041 17.426666259765625 31.84000015258789 15.899999618530273 C 31.99333381652832 15.600000381469727 32.163333892822266 15.296667098999023 32.349998474121094 14.989999771118164 C 32.529998779296875 14.676666259765625 32.73666763305664 14.39666748046875 32.970001220703125 14.149999618530273 C 33.20333480834961 13.89666748046875 33.473331451416016 13.686666488647461 33.779998779296875 13.520000457763672 C 34.08000183105469 13.35333251953125 34.413333892822266 13.270000457763672 34.779998779296875 13.270000457763672 C 35.29999923706055 13.270000457763672 35.709999084472656 13.436666488647461 36.0099983215332 13.770000457763672 C 36.310001373291016 14.10333251953125 36.540000915527344 14.503334045410156 36.70000076293945 14.969999313354492 C 36.86000061035156 15.44333267211914 36.96666717529297 15.933332443237305 37.02000045776367 16.440000534057617 C 37.06666564941406 16.953332901000977 37.09000015258789 17.386667251586914 37.09000015258789 17.739999771118164 C 37.09000015258789 19.280000686645508 37.040000915527344 20.983333587646484 36.939998626708984 22.850000381469727 C 36.84000015258789 24.71666717529297 36.77000045776367 26.65333366394043 36.72999954223633 28.65999984741211 C 36.68333435058594 30.666667938232422 36.70333480834961 32.70000076293945 36.790000915527344 34.76000213623047 C 36.87666702270508 36.81999969482422 37.10333251953125 38.813331604003906 37.470001220703125 40.7400016784668 C 37.836666107177734 42.66666793823242 38.380001068115234 44.46666717529297 39.099998474121094 46.13999938964844 C 39.81999969482422 47.813331604003906 40.790000915527344 49.27333450317383 42.0099983215332 50.52000045776367 C 43.23666763305664 51.766666412353516 44.75 52.75 46.54999923706055 53.470001220703125 C 48.349998474121094 54.189998626708984 50.51333236694336 54.54999923706055 53.040000915527344 54.54999923706055 C 53.426666259765625 54.54999923706055 53.79999923706055 54.52000045776367 54.15999984741211 54.459999084472656 C 54.52000045776367 54.40666580200195 54.86666488647461 54.3033332824707 55.20000076293945 54.150001525878906 L 55.349998474121094 54.650001525878906 ZM 59.91724395751953 11.889999389648438 C 59.91724395751953 13.043333053588867 59.753910064697266 14.183332443237305 59.427242279052734 15.309999465942383 C 59.10057830810547 16.44333267211914 58.653907775878906 17.540000915527344 58.087242126464844 18.600000381469727 C 57.51390838623047 19.66666603088379 56.840576171875 20.68000030517578 56.06724166870117 21.639999389648438 C 55.2872428894043 22.606666564941406 54.44390869140625 23.49333381652832 53.5372428894043 24.299999237060547 C 52.637245178222656 25.113332748413086 51.69390869140625 25.850000381469727 50.707244873046875 26.510000228881836 C 49.71390914916992 27.176666259765625 48.723907470703125 27.726665496826172 47.73724365234375 28.15999984741211 L 47.56724166870117 27.779998779296875 C 48.800575256347656 27.19333267211914 49.983909606933594 26.360000610351562 51.11724090576172 25.280000686645508 C 52.24391174316406 24.200000762939453 53.240577697753906 22.986665725708008 54.107242584228516 21.639999389648438 C 54.96724319458008 20.293333053588867 55.653907775878906 18.873332977294922 56.16724395751953 17.3799991607666 C 56.67390823364258 15.893333435058594 56.927242279052734 14.440000534057617 56.927242279052734 13.020000457763672 C 56.927242279052734 12.733333587646484 56.90724182128906 12.440000534057617 56.86724090576172 12.139999389648438 C 56.82724380493164 11.833333969116211 56.74391174316406 11.55666732788086 56.61724090576172 11.309999465942383 C 56.490577697753906 11.05666732788086 56.31724166870117 10.849998474121094 56.09724426269531 10.689998626708984 C 55.8839111328125 10.529998779296875 55.60057830810547 10.450000762939453 55.24724197387695 10.450000762939453 C 54.26057434082031 10.450000762939453 53.34724426269531 10.786666870117188 52.50724411010742 11.459999084472656 C 51.67390823364258 12.126667022705078 50.91724395751953 13.016666412353516 50.23724365234375 14.129999160766602 C 49.55724334716797 15.24333381652832 48.957244873046875 16.520000457763672 48.4372444152832 17.959999084472656 C 47.92390823364258 19.399999618530273 47.490577697753906 20.883333206176758 47.13724136352539 22.40999984741211 C 46.78390884399414 23.93000030517578 46.52057647705078 25.43666648864746 46.34724426269531 26.93000030517578 C 46.16724395751953 28.416667938232422 46.07724380493164 29.779998779296875 46.07724380493164 31.020000457763672 C 46.07724380493164 31.67333221435547 46.11724090576172 32.39666748046875 46.197242736816406 33.189998626708984 C 46.27057647705078 33.98999786376953 46.403907775878906 34.790000915527344 46.59724426269531 35.59000015258789 C 46.79057693481445 36.39666748046875 47.04057693481445 37.18000030517578 47.34724426269531 37.939998626708984 C 47.66057586669922 38.70000076293945 48.05390930175781 39.37333297729492 48.527244567871094 39.959999084472656 C 49.00724411010742 40.54666519165039 49.573909759521484 41.02000045776367 50.22724151611328 41.380001068115234 C 50.880577087402344 41.7400016784668 51.64057540893555 41.91999816894531 52.50724411010742 41.91999816894531 C 53.060577392578125 41.91999816894531 53.53390884399414 41.810001373291016 53.927242279052734 41.59000015258789 C 54.32057571411133 41.37666702270508 54.64057540893555 41.08333206176758 54.887245178222656 40.709999084472656 C 55.12724304199219 40.34333419799805 55.30724334716797 39.926666259765625 55.427242279052734 39.459999084472656 C 55.54057693481445 38.99333190917969 55.59724426269531 38.516666412353516 55.59724426269531 38.029998779296875 C 55.59724426269531 37.27666473388672 55.49391174316406 36.47999954223633 55.2872428894043 35.63999938964844 C 55.073909759521484 34.80666732788086 54.753910064697266 34.046669006347656 54.32724380493164 33.36000061035156 C 53.900577545166016 32.67333221435547 53.36057662963867 32.10333251953125 52.707244873046875 31.649999618530273 C 52.05390930175781 31.196666717529297 51.28390884399414 30.970001220703125 50.39724349975586 30.970001220703125 C 50.150577545166016 30.970001220703125 49.89724349975586 30.989999771118164 49.63724136352539 31.029998779296875 C 49.37724304199219 31.07666778564453 49.120574951171875 31.139999389648438 48.86724090576172 31.220001220703125 L 48.71724319458008 30.970001220703125 C 49.337242126464844 30.503334045410156 50.01057434082031 30.106666564941406 50.73724365234375 29.779998779296875 C 51.470577239990234 29.453332901000977 52.23724365234375 29.290000915527344 53.0372428894043 29.290000915527344 C 53.89057540893555 29.290000915527344 54.653907775878906 29.47333335876465 55.32724380493164 29.84000015258789 C 55.99391174316406 30.206666946411133 56.55724334716797 30.683334350585938 57.017242431640625 31.270000457763672 C 57.47724151611328 31.856666564941406 57.83057403564453 32.529998779296875 58.07724380493164 33.290000915527344 C 58.31724548339844 34.05666732788086 58.43724060058594 34.823333740234375 58.43724060058594 35.59000015258789 C 58.43724060058594 36.74333190917969 58.240577697753906 37.823333740234375 57.84724426269531 38.83000183105469 C 57.45391082763672 39.836666107177734 56.903907775878906 40.71333312988281 56.197242736816406 41.459999084472656 C 55.49724197387695 42.20000076293945 54.65724182128906 42.779998779296875 53.677242279052734 43.20000076293945 C 52.697242736816406 43.619998931884766 51.620574951171875 43.83000183105469 50.447242736816406 43.83000183105469 C 49.447242736816406 43.83000183105469 48.56391143798828 43.650001525878906 47.7972412109375 43.290000915527344 C 47.0372428894043 42.93000030517578 46.37390899658203 42.4466667175293 45.80724334716797 41.84000015258789 C 45.233909606933594 41.2400016784668 44.75724411010742 40.5433349609375 44.37724304199219 39.75 C 43.990577697753906 38.9566650390625 43.68057632446289 38.119998931884766 43.447242736816406 37.23999786376953 C 43.21390914916992 36.36000061035156 43.0472412109375 35.47666549682617 42.947242736816406 34.59000015258789 C 42.840576171875 33.703330993652344 42.7872428894043 32.856666564941406 42.7872428894043 32.04999923706055 C 42.7872428894043 30.57666778564453 42.91724395751953 28.970001220703125 43.177242279052734 27.229999542236328 C 43.4372444152832 25.489999771118164 43.823909759521484 23.74333381652832 44.337242126464844 21.989999771118164 C 44.843910217285156 20.24333381652832 45.48724365234375 18.553333282470703 46.267242431640625 16.920000076293945 C 47.0472412109375 15.286666870117188 47.95057678222656 13.843334197998047 48.97724151611328 12.59000015258789 C 50.01057434082031 11.329999923706055 51.17057800292969 10.323333740234375 52.457244873046875 9.569999694824219 C 53.75057601928711 8.816665649414062 55.17390823364258 8.439998626708984 56.72724151611328 8.439998626708984 C 57.81391143798828 8.439998626708984 58.61724090576172 8.756668090820312 59.137245178222656 9.389999389648438 C 59.65724182128906 10.016666412353516 59.91724395751953 10.849998474121094 59.91724395751953 11.889999389648438 ZM 79.52909851074219 39.40999984741211 C 79.22909545898438 40.07666778564453 78.8490982055664 40.68000030517578 78.38909912109375 41.220001220703125 C 77.9291000366211 41.753334045410156 77.43243408203125 42.209999084472656 76.89909362792969 42.59000015258789 C 76.35910034179688 42.96333312988281 75.8057632446289 43.253334045410156 75.23909759521484 43.459999084472656 C 74.66576385498047 43.67333221435547 74.12242889404297 43.779998779296875 73.60910034179688 43.779998779296875 C 72.6357650756836 43.779998779296875 71.81243133544922 43.61333465576172 71.13909912109375 43.279998779296875 C 70.4724349975586 42.939998626708984 69.9291000366211 42.48666763305664 69.50909423828125 41.91999816894531 C 69.08909606933594 41.35333251953125 68.78910064697266 40.68333435058594 68.60910034179688 39.90999984741211 C 68.42243194580078 39.143333435058594 68.3291015625 38.323333740234375 68.3291015625 37.45000076293945 C 68.3291015625 36.78333282470703 68.37909698486328 36.09000015258789 68.47909545898438 35.369998931884766 C 68.5791015625 34.650001525878906 68.7224349975586 33.953330993652344 68.90909576416016 33.279998779296875 C 68.94242858886719 33.18000030517578 68.97576904296875 33.060001373291016 69.00909423828125 32.91999816894531 C 69.04243469238281 32.77333450317383 69.05909729003906 32.650001525878906 69.05909729003906 32.54999923706055 C 69.05909729003906 32.470001220703125 69.00909423828125 32.40333557128906 68.90909576416016 32.349998474121094 C 68.62242889404297 32.25 68.32243347167969 32.15333557128906 68.00909423828125 32.060001373291016 C 67.68910217285156 31.97333335876465 67.37242889404297 31.869998931884766 67.05909729003906 31.75 C 66.75243377685547 31.630001068115234 66.46243286132812 31.496665954589844 66.18910217285156 31.350000381469727 C 65.90909576416016 31.196666717529297 65.66909790039062 31.003334045410156 65.46910095214844 30.770000457763672 C 65.4490966796875 31.77666664123535 65.28243255615234 32.7933349609375 64.96910095214844 33.81999969482422 C 64.64910125732422 34.85333251953125 64.22576904296875 35.84000015258789 63.6990966796875 36.779998779296875 C 63.17243194580078 37.72666549682617 62.555763244628906 38.61000061035156 61.849098205566406 39.43000030517578 C 61.14909744262695 40.25 60.405765533447266 40.96333312988281 59.61909866333008 41.56999969482422 L 59.36909866333008 41.31999969482422 C 59.85576629638672 40.779998779296875 60.29909896850586 40.143333435058594 60.6990966796875 39.40999984741211 C 61.099098205566406 38.66999816894531 61.44243240356445 37.900001525878906 61.72909927368164 37.099998474121094 C 62.009098052978516 36.2933349609375 62.22909927368164 35.47999954223633 62.38909912109375 34.65999984741211 C 62.54909896850586 33.84000015258789 62.62909698486328 33.06999969482422 62.62909698486328 32.349998474121094 C 62.62909698486328 31.983333587646484 62.59576416015625 31.63666534423828 62.52909851074219 31.310001373291016 C 62.462432861328125 30.983333587646484 62.392433166503906 30.670000076293945 62.31909942626953 30.369998931884766 C 62.239097595214844 30.06999969482422 62.16576385498047 29.779998779296875 62.099098205566406 29.5 C 62.032432556152344 29.226665496826172 61.99909973144531 28.946666717529297 61.99909973144531 28.65999984741211 C 61.99909973144531 28.19333267211914 62.15243148803711 27.82666778564453 62.45909881591797 27.560001373291016 C 62.759098052978516 27.286666870117188 63.142433166503906 27.149999618530273 63.609100341796875 27.149999618530273 C 63.862430572509766 27.149999618530273 64.0557632446289 27.22333335876465 64.18910217285156 27.369998931884766 C 64.32243347167969 27.510000228881836 64.43910217285156 27.68000030517578 64.53910064697266 27.880001068115234 C 64.63909912109375 28.079999923706055 64.75576782226562 28.290000915527344 64.88909912109375 28.510000228881836 C 65.02243041992188 28.729999542236328 65.21576690673828 28.913333892822266 65.46910095214844 29.060001373291016 C 65.78910064697266 29.246665954589844 66.18910217285156 29.380001068115234 66.66909790039062 29.459999084472656 C 67.15576171875 29.546667098999023 67.66909790039062 29.623332977294922 68.20909881591797 29.689998626708984 C 68.742431640625 29.756668090820312 69.27576446533203 29.823333740234375 69.80909729003906 29.889999389648438 C 70.3490982055664 29.956666946411133 70.83242797851562 30.06999969482422 71.25909423828125 30.229999542236328 C 71.6857681274414 30.389999389648438 72.03243255615234 30.606666564941406 72.2990951538086 30.880001068115234 C 72.56576538085938 31.15999984741211 72.6990966796875 31.53333282470703 72.6990966796875 32 C 72.6990966796875 32.233333587646484 72.6791000366211 32.46333312988281 72.63909912109375 32.689998626708984 C 72.5990982055664 32.91666793823242 72.5357666015625 33.130001068115234 72.4490966796875 33.33000183105469 C 72.24909973144531 34.03666687011719 72.0791015625 34.753334045410156 71.93910217285156 35.47999954223633 C 71.79243469238281 36.2066650390625 71.71910095214844 36.93000030517578 71.71910095214844 37.650001525878906 C 71.71910095214844 38.27000045776367 71.76576232910156 38.836666107177734 71.85910034179688 39.349998474121094 C 71.95243072509766 39.856666564941406 72.12576293945312 40.2933349609375 72.37909698486328 40.65999984741211 C 72.62576293945312 41.03333282470703 72.95909881591797 41.31999969482422 73.37909698486328 41.52000045776367 C 73.7990951538086 41.720001220703125 74.33576202392578 41.81999969482422 74.98909759521484 41.81999969482422 C 75.92243194580078 41.81999969482422 76.742431640625 41.59000015258789 77.4490966796875 41.130001068115234 C 78.14909362792969 40.66999816894531 78.76909637451172 40.063331604003906 79.30909729003906 39.310001373291016 L 79.52909851074219 39.40999984741211 ZM 89.62786102294922 29.84000015258789 C 89.62786102294922 30.02666664123535 89.56119537353516 30.189998626708984 89.4278564453125 30.329999923706055 C 89.29452514648438 30.470001220703125 89.13452911376953 30.540000915527344 88.94786071777344 30.540000915527344 C 88.79452514648438 30.540000915527344 88.63452911376953 30.496665954589844 88.46785736083984 30.40999984741211 C 88.30119323730469 30.316665649414062 88.1145248413086 30.209999084472656 87.9078598022461 30.09000015258789 C 87.69452667236328 29.976665496826172 87.4511947631836 29.873332977294922 87.1778564453125 29.779998779296875 C 86.90452575683594 29.68666648864746 86.59119415283203 29.639999389648438 86.23786163330078 29.639999389648438 C 85.41786193847656 29.639999389648438 84.68452453613281 29.89666748046875 84.03785705566406 30.40999984741211 C 83.39119720458984 30.916667938232422 82.84786224365234 31.546667098999023 82.4078598022461 32.29999923706055 C 81.96119689941406 33.0533332824707 81.6211929321289 33.856666564941406 81.38786315917969 34.709999084472656 C 81.15452575683594 35.563331604003906 81.03785705566406 36.33333206176758 81.03785705566406 37.02000045776367 C 81.03785705566406 37.50666809082031 81.08119201660156 37.97999954223633 81.16786193847656 38.439998626708984 C 81.24786376953125 38.900001525878906 81.39452362060547 39.31999969482422 81.60786437988281 39.70000076293945 C 81.81452941894531 40.073333740234375 82.1011962890625 40.37333297729492 82.46785736083984 40.599998474121094 C 82.83452606201172 40.82666778564453 83.30452728271484 40.939998626708984 83.87786102294922 40.939998626708984 C 84.47785949707031 40.939998626708984 85.05452728271484 40.82666778564453 85.60786437988281 40.599998474121094 C 86.16119384765625 40.37333297729492 86.68119049072266 40.07666778564453 87.16786193847656 39.709999084472656 C 87.18119049072266 39.176666259765625 87.26786041259766 38.61333465576172 87.4278564453125 38.02000045776367 C 87.58786010742188 37.41999816894531 87.79452514648438 36.83333206176758 88.04785919189453 36.26000213623047 C 88.29452514648438 35.68000030517578 88.58119201660156 35.130001068115234 88.9078598022461 34.61000061035156 C 89.23452758789062 34.09000015258789 89.57452392578125 33.630001068115234 89.9278564453125 33.22999954223633 L 90.25785827636719 33.43000030517578 C 90.07119750976562 34.003334045410156 89.93452453613281 34.59000015258789 89.84786224365234 35.189998626708984 C 89.76786041259766 35.790000915527344 89.72785949707031 36.383331298828125 89.72785949707031 36.970001220703125 C 89.72785949707031 37.57666778564453 89.77786254882812 38.14666748046875 89.87786102294922 38.68000030517578 C 89.97785949707031 39.21333312988281 90.15452575683594 39.676666259765625 90.4078598022461 40.06999969482422 C 90.65452575683594 40.46333312988281 90.99786376953125 40.77333450317383 91.43785858154297 41 C 91.8711929321289 41.22666549682617 92.43119049072266 41.34000015258789 93.11785888671875 41.34000015258789 C 93.9578628540039 41.34000015258789 94.72785949707031 41.14666748046875 95.4278564453125 40.7599983215332 C 96.12786102294922 40.380001068115234 96.74786376953125 39.89666748046875 97.28785705566406 39.310001373291016 L 97.48786163330078 39.40999984741211 C 97.18785858154297 39.996665954589844 96.79452514648438 40.55666732788086 96.307861328125 41.09000015258789 C 95.82119750976562 41.630001068115234 95.28119659423828 42.11333465576172 94.68785858154297 42.540000915527344 C 94.09452819824219 42.96666717529297 93.46119689941406 43.3033332824707 92.78785705566406 43.54999923706055 C 92.1211929321289 43.8033332824707 91.46119689941406 43.93000030517578 90.807861328125 43.93000030517578 C 89.88786315917969 43.93000030517578 89.13452911376953 43.66666793823242 88.54785919189453 43.13999938964844 C 87.96119689941406 42.61333465576172 87.557861328125 41.9466667175293 87.33786010742188 41.13999938964844 C 86.63786315917969 41.8466682434082 85.85786437988281 42.436668395996094 84.99786376953125 42.90999984741211 C 84.13119506835938 43.38999938964844 83.22119140625 43.630001068115234 82.26786041259766 43.630001068115234 C 81.56786346435547 43.630001068115234 80.94452667236328 43.5 80.39785766601562 43.2400016784668 C 79.8511962890625 42.97999954223633 79.39452362060547 42.63333511352539 79.02786254882812 42.20000076293945 C 78.66119384765625 41.7599983215332 78.38119506835938 41.24333190917969 78.18785858154297 40.650001525878906 C 77.9945297241211 40.05666732788086 77.89785766601562 39.43333435058594 77.89785766601562 38.779998779296875 C 77.89785766601562 38.02666473388672 78.02119445800781 37.253334045410156 78.26786041259766 36.459999084472656 C 78.50785827636719 35.66666793823242 78.84119415283203 34.883331298828125 79.26786041259766 34.11000061035156 C 79.69452667236328 33.336666107177734 80.2011947631836 32.61000061035156 80.78785705566406 31.93000030517578 C 81.37452697753906 31.243331909179688 82.0145263671875 30.639999389648438 82.7078628540039 30.119998931884766 C 83.40119171142578 29.600000381469727 84.13452911376953 29.189998626708984 84.9078598022461 28.889999389648438 C 85.67453002929688 28.583332061767578 86.46119689941406 28.43000030517578 87.26786041259766 28.43000030517578 C 87.44786071777344 28.43000030517578 87.67453002929688 28.453332901000977 87.94786071777344 28.5 C 88.21452331542969 28.540000915527344 88.47119140625 28.610000610351562 88.71785736083984 28.709999084472656 C 88.97119140625 28.810001373291016 89.18785858154297 28.953332901000977 89.36785888671875 29.139999389648438 C 89.54119110107422 29.31999969482422 89.62786102294922 29.553333282470703 89.62786102294922 29.84000015258789 ZM 117.95556640625 39.40999984741211 C 117.63557434082031 40.0099983215332 117.29557037353516 40.586666107177734 116.9355697631836 41.13999938964844 C 116.57556915283203 41.69333267211914 116.16889953613281 42.18000030517578 115.71556854248047 42.599998474121094 C 115.26890563964844 43.02000045776367 114.75890350341797 43.35333251953125 114.1855697631836 43.599998474121094 C 113.61890411376953 43.85333251953125 112.96556854248047 43.97999954223633 112.22557067871094 43.97999954223633 C 111.3922348022461 43.97999954223633 110.6722412109375 43.77333450317383 110.06556701660156 43.36000061035156 C 109.46556854248047 42.95333480834961 108.95223999023438 42.40999984741211 108.52557373046875 41.72999954223633 C 108.09890747070312 41.04999923706055 107.75556945800781 40.27666473388672 107.49557495117188 39.40999984741211 C 107.2355728149414 38.53666687011719 107.0222396850586 37.650001525878906 106.8555679321289 36.75 C 106.68890380859375 35.84333419799805 106.56224060058594 34.95000076293945 106.47557067871094 34.06999969482422 C 106.39556884765625 33.189998626708984 106.32223510742188 32.400001525878906 106.25556945800781 31.700000762939453 C 105.9355697631836 31.953332901000977 105.54890441894531 32.43333435058594 105.09557342529297 33.13999938964844 C 104.6422348022461 33.85333251953125 104.18223571777344 34.686668395996094 103.71556854248047 35.63999938964844 C 103.2489013671875 36.59333419799805 102.80223846435547 37.633331298828125 102.37557220458984 38.76000213623047 C 101.94890594482422 39.880001068115234 101.59890747070312 40.983333587646484 101.32556915283203 42.06999969482422 C 101.27890014648438 42.3033332824707 101.19890594482422 42.54666519165039 101.0855712890625 42.79999923706055 C 100.9789047241211 43.0533332824707 100.84557342529297 43.28333282470703 100.6855697631836 43.4900016784668 C 100.52557373046875 43.6966667175293 100.33890533447266 43.87333297729492 100.12557220458984 44.02000045776367 C 99.90557098388672 44.15999984741211 99.66223907470703 44.22999954223633 99.39556884765625 44.22999954223633 C 98.96223449707031 44.22999954223633 98.6489028930664 44.08000183105469 98.45557403564453 43.779998779296875 C 98.26223754882812 43.47999954223633 98.12223815917969 43.13666534423828 98.03556823730469 42.75 C 97.55557250976562 40.62333297729492 97.21890258789062 38.59000015258789 97.02557373046875 36.650001525878906 C 96.83223724365234 34.703330993652344 96.7355728149414 32.76000213623047 96.7355728149414 30.81999969482422 C 96.7355728149414 30.35333251953125 96.81556701660156 29.946666717529297 96.97557067871094 29.600000381469727 C 97.13557434082031 29.260000228881836 97.34890747070312 28.976665496826172 97.61557006835938 28.75 C 97.88224029541016 28.523334503173828 98.19890594482422 28.356666564941406 98.56556701660156 28.25 C 98.93223571777344 28.13666534423828 99.31890106201172 28.079999923706055 99.72557067871094 28.079999923706055 C 99.7722396850586 28.079999923706055 99.84890747070312 28.079999923706055 99.95557403564453 28.079999923706055 C 100.06890106201172 28.079999923706055 100.17556762695312 28.093334197998047 100.27557373046875 28.119998931884766 C 100.37557220458984 28.14666748046875 100.45890045166016 28.183334350585938 100.52557373046875 28.229999542236328 C 100.59223937988281 28.28333282470703 100.61890411376953 28.350000381469727 100.6055679321289 28.43000030517578 C 100.16557312011719 30.623332977294922 99.95557403564453 32.856666564941406 99.97557067871094 35.130001068115234 C 99.98890686035156 37.39666748046875 100.1055679321289 39.57666778564453 100.32556915283203 41.66999816894531 C 100.51223754882812 40.83000183105469 100.78556823730469 39.880001068115234 101.14556884765625 38.81999969482422 C 101.50556945800781 37.753334045410156 101.9222412109375 36.68000030517578 102.39556884765625 35.599998474121094 C 102.87557220458984 34.52000045776367 103.39556884765625 33.49333190917969 103.95556640625 32.52000045776367 C 104.51557159423828 31.540000915527344 105.08890533447266 30.713333129882812 105.67556762695312 30.040000915527344 C 105.95556640625 29.720001220703125 106.24223327636719 29.450000762939453 106.53556823730469 29.229999542236328 C 106.82890319824219 29.003334045410156 107.19557189941406 28.889999389648438 107.63557434082031 28.889999389648438 C 107.88224029541016 28.889999389648438 108.08890533447266 28.939998626708984 108.25556945800781 29.040000915527344 C 108.42890167236328 29.139999389648438 108.56890106201172 29.26333236694336 108.67556762695312 29.40999984741211 C 108.78223419189453 29.56333351135254 108.86557006835938 29.73666763305664 108.92556762695312 29.93000030517578 C 108.9855728149414 30.123332977294922 109.03223419189453 30.310001373291016 109.06556701660156 30.489999771118164 C 109.14556884765625 30.976665496826172 109.2289047241211 31.606666564941406 109.31556701660156 32.380001068115234 C 109.39556884765625 33.14666748046875 109.4989013671875 33.96666717529297 109.62557220458984 34.84000015258789 C 109.75223541259766 35.7066650390625 109.90890502929688 36.58000183105469 110.09557342529297 37.459999084472656 C 110.27557373046875 38.34000015258789 110.50890350341797 39.13666534423828 110.79557037353516 39.849998474121094 C 111.08223724365234 40.563331604003906 111.42556762695312 41.143333435058594 111.82556915283203 41.59000015258789 C 112.22557067871094 42.0433349609375 112.70223999023438 42.27000045776367 113.25556945800781 42.27000045776367 C 113.70890808105469 42.27000045776367 114.1489028930664 42.18333435058594 114.57556915283203 42.0099983215332 C 115.00223541259766 41.83000183105469 115.40890502929688 41.60333251953125 115.79557037353516 41.33000183105469 C 116.18223571777344 41.05666732788086 116.542236328125 40.7400016784668 116.87557220458984 40.380001068115234 C 117.20890808105469 40.02000045776367 117.50890350341797 39.663333892822266 117.77557373046875 39.310001373291016 L 117.95556640625 39.40999984741211 ZM 132.72227478027344 39.40999984741211 C 132.2822723388672 40.0433349609375 131.75894165039062 40.63666534423828 131.15228271484375 41.189998626708984 C 130.5389404296875 41.74333190917969 129.8689422607422 42.220001220703125 129.14227294921875 42.619998931884766 C 128.4156036376953 43.026668548583984 127.65227508544922 43.3466682434082 126.85227966308594 43.58000183105469 C 126.05894470214844 43.813331604003906 125.26227569580078 43.93000030517578 124.4622802734375 43.93000030517578 C 123.32227325439453 43.93000030517578 122.25894165039062 43.78333282470703 121.27227783203125 43.4900016784668 C 120.27894592285156 43.1966667175293 119.41561126708984 42.75 118.6822738647461 42.150001525878906 C 117.94227600097656 41.5433349609375 117.36560821533203 40.78333282470703 116.95227813720703 39.869998931884766 C 116.53227233886719 38.9566650390625 116.32227325439453 37.88999938964844 116.32227325439453 36.66999816894531 C 116.32227325439453 35.46333312988281 116.54227447509766 34.336666107177734 116.9822769165039 33.290000915527344 C 117.42893981933594 32.24333190917969 118.04227447509766 31.333332061767578 118.82227325439453 30.560001373291016 C 119.60227966308594 29.779998779296875 120.5189437866211 29.163333892822266 121.57227325439453 28.709999084472656 C 122.6256103515625 28.256668090820312 123.75560760498047 28.029998779296875 124.9622802734375 28.029998779296875 C 125.52894592285156 28.029998779296875 126.05894470214844 28.110000610351562 126.55227661132812 28.270000457763672 C 127.04560852050781 28.43000030517578 127.47894287109375 28.663333892822266 127.85227966308594 28.970001220703125 C 128.2189483642578 29.28333282470703 128.505615234375 29.666667938232422 128.7122802734375 30.119998931884766 C 128.9256134033203 30.573333740234375 129.0322723388672 31.09000015258789 129.0322723388672 31.670000076293945 C 129.0322723388672 32.37666702270508 128.88894653320312 32.996665954589844 128.60227966308594 33.529998779296875 C 128.31561279296875 34.06999969482422 127.9389419555664 34.540000915527344 127.47227478027344 34.939998626708984 C 127.00560760498047 35.34000015258789 126.47227478027344 35.67333221435547 125.87227630615234 35.939998626708984 C 125.27894592285156 36.21333312988281 124.66227722167969 36.43333435058594 124.02227783203125 36.599998474121094 C 123.3756103515625 36.766666412353516 122.73894500732422 36.88666534423828 122.11227416992188 36.959999084472656 C 121.48561096191406 37.03333282470703 120.91227722167969 37.06999969482422 120.39227294921875 37.06999969482422 L 119.78227233886719 37.06999969482422 C 120.00227355957031 38.5966682434082 120.60560607910156 39.7599983215332 121.59227752685547 40.560001373291016 C 122.57894134521484 41.36666488647461 123.94561004638672 41.77000045776367 125.69227600097656 41.77000045776367 C 126.92561340332031 41.77000045776367 128.1322784423828 41.5533332824707 129.31227111816406 41.119998931884766 C 130.4989471435547 40.68000030517578 131.56893920898438 40.07666778564453 132.52227783203125 39.310001373291016 L 132.72227478027344 39.40999984741211 M 119.71227264404297 36.31999969482422 L 120.34227752685547 36.31999969482422 C 120.94227600097656 36.31999969482422 121.5622787475586 36.22333526611328 122.20227813720703 36.029998779296875 C 122.83560943603516 35.836666107177734 123.40894317626953 35.5533332824707 123.92227172851562 35.18000030517578 C 124.42893981933594 34.79999923706055 124.84894561767578 34.33333206176758 125.1822738647461 33.779998779296875 C 125.52227783203125 33.22666549682617 125.69227600097656 32.599998474121094 125.69227600097656 31.899999618530273 C 125.69227600097656 31.213333129882812 125.54560852050781 30.643333435058594 125.25227355957031 30.189998626708984 C 124.95893859863281 29.73666763305664 124.45227813720703 29.510000228881836 123.7322769165039 29.510000228881836 C 122.99227905273438 29.510000228881836 122.36894226074219 29.733333587646484 121.86227416992188 30.18000030517578 C 121.34894561767578 30.626667022705078 120.9322738647461 31.170000076293945 120.61227416992188 31.810001373291016 C 120.29894256591797 32.4566650390625 120.06893920898438 33.13666534423828 119.92227935791016 33.849998474121094 C 119.78227233886719 34.55666732788086 119.71227264404297 35.186668395996094 119.71227264404297 35.73999786376953 L 119.71227264404297 36.31999969482422 Z" transform="matrix(0.727042555809021, 0, 0, 0.727042555809021, 1.180109977722168, 3.709312915802002)"/>
</g>
</svg>
